999
dxflib 3.7.5.0
  0
SECTION
  2
HEADER
  9
$ACADVER
  1
AC1015
  9
$HANDSEED
  5
FFFF
  9
$ANGBASE
 50
0.0
  9
$ATTMODE
 70
1
  9
$AUNITS
 70
0
  9
$AUPREC
 70
0
  9
$CELTSCALE
 40
1.0
  9
$CHAMFERA
 40
0.0
  9
$CHAMFERB
 40
0.0
  9
$CHAMFERC
 40
0.0
  9
$CHAMFERD
 40
0.0
  9
$CMLJUST
 70
0
  9
$CMLSCALE
 40
1.0
  9
$DIMADEC
 70
0
  9
$DIMALTD
 70
2
  9
$DIMALTF
 40
25.3999999999999986
  9
$DIMALTRND
 40
0.0
  9
$DIMALTTD
 70
2
  9
$DIMALTTZ
 70
0
  9
$DIMALTU
 70
2
  9
$DIMALTZ
 70
0
  9
$DIMAPOST
  1

  9
$DIMASZ
 40
2.5
  9
$DIMATFIT
 70
3
  9
$DIMAUNIT
 70
0
  9
$DIMAZIN
 70
2
  9
$DIMCEN
 40
0.09
  9
$DIMDEC
 70
4
  9
$DIMDLE
 40
0.0
  9
$DIMDLI
 40
0.38
  9
$DIMDSEP
 70
46
  9
$DIMEXE
 40
1.25
  9
$DIMEXO
 40
0.625
  9
$DIMFRAC
 70
0
  9
$DIMGAP
 40
0.625
  9
$DIMJUST
 70
0
  9
$DIMLFAC
 40
1.0
  9
$DIMLUNIT
 70
2
  9
$DIMLWD
 70
-2
  9
$DIMLWE
 70
-2
  9
$DIMPOST
  1

  9
$DIMRND
 40
0.0
  9
$DIMSCALE
 40
1.0
  9
$DIMTAD
 70
0
  9
$DIMTDEC
 70
4
  9
$DIMTFAC
 40
1.0
  9
$DIMTM
 40
0.0
  9
$DIMTOLJ
 70
1
  9
$DIMTP
 40
0.0
  9
$DIMTSZ
 40
0.0
  9
$DIMTVP
 40
0.0
  9
$DIMTXT
 40
2.5
  9
$DIMTZIN
 70
0
  9
$DIMZIN
 70
8
  9
$DWGCODEPAGE
  3
ANSI_1252
  9
$ELEVATION
 40
0.0
  9
$EXTMAX
 10
-100000000000000000000.0
 20
-100000000000000000000.0
 30
-100000000000000000000.0
  9
$EXTMIN
 10
100000000000000000000.0
 20
100000000000000000000.0
 30
100000000000000000000.0
  9
$FILLETRAD
 40
0.5
  9
$INSBASE
 10
0.0
 20
0.0
 30
0.0
  9
$INSUNITS
 70
4
  9
$LIMMAX
 10
12.0
 20
9.0
  9
$LIMMIN
 10
0.0
 20
0.0
  9
$LTSCALE
 40
1.0
  9
$LUNITS
 70
2
  9
$LUPREC
 70
4
  9
$MAXACTVP
 70
2
  9
$MEASUREMENT
 70
1
  9
$PDMODE
 70
0
  9
$PDSIZE
 40
0.0
  9
$PELEVATION
 40
0.0
  9
$PEXTMAX
 10
-100000000000000000000.0
 20
-100000000000000000000.0
 30
-100000000000000000000.0
  9
$PEXTMIN
 10
100000000000000000000.0
 20
100000000000000000000.0
 30
100000000000000000000.0
  9
$PINSBASE
 10
0.0
 20
0.0
 30
0.0
  9
$PLIMMAX
 10
12.0
 20
9.0
  9
$PLIMMIN
 10
0.0
 20
0.0
  9
$PLINEWID
 40
0.0
  9
$PROXYGRAPHICS
 70
1
  9
$PUCSORG
 10
0.0
 20
0.0
 30
0.0
  9
$PUCSXDIR
 10
1.0
 20
0.0
 30
0.0
  9
$PUCSYDIR
 10
0.0
 20
1.0
 30
0.0
  9
$SHADEDGE
 70
3
  9
$SHADEDIF
 70
70
  9
$SKETCHINC
 40
0.1
  9
$SPLINESEGS
 70
8
  9
$SPLINETYPE
 70
6
  9
$SURFTAB1
 70
6
  9
$SURFTAB2
 70
6
  9
$SURFTYPE
 70
6
  9
$SURFU
 70
6
  9
$SURFV
 70
6
  9
$TEXTSIZE
 40
2.5
  9
$THICKNESS
 40
0.0
  9
$TRACEWID
 40
0.05
  9
$TREEDEPTH
 70
3020
  9
$UCSORG
 10
0.0
 20
0.0
 30
0.0
  9
$UCSXDIR
 10
1.0
 20
0.0
 30
0.0
  9
$UCSYDIR
 10
0.0
 20
1.0
 30
0.0
  9
$UNITMODE
 70
0
  9
$USERI1
 70
0
  9
$USERI2
 70
0
  9
$USERI3
 70
0
  9
$USERI4
 70
0
  9
$USERI5
 70
0
  9
$USERR1
 40
0.0
  9
$USERR2
 40
0.0
  9
$USERR3
 40
0.0
  9
$USERR4
 40
0.0
  9
$USERR5
 40
0.0
  0
ENDSEC
  0
SECTION
  2
TABLES
  0
TABLE
  2
VPORT
  5
8
100
AcDbSymbolTable
 70
1
  0
VPORT
  5
30
100
AcDbSymbolTableRecord
100
AcDbViewportTableRecord
  2
*Active
 70
0
 10
0.0
 20
0.0
 11
1.0
 21
1.0
 12
286.3055555555554861
 22
148.5
 13
0.0
 23
0.0
 14
10.0
 24
10.0
 15
10.0
 25
10.0
 16
0.0
 26
0.0
 36
1.0
 17
0.0
 27
0.0
 37
0.0
 40
297.0
 41
1.92798353909465
 42
50.0
 43
0.0
 44
0.0
 50
0.0
 51
0.0
 71
0
 72
100
 73
1
 74
3
 75
1
 76
1
 77
0
 78
0
281
0
 65
1
110
0.0
120
0.0
130
0.0
111
1.0
121
0.0
131
0.0
112
0.0
122
1.0
132
0.0
 79
0
146
0.0
  0
ENDTAB
  0
TABLE
  2
LTYPE
  5
5
100
AcDbSymbolTable
 70
50
  0
LTYPE
  5
16
100
AcDbSymbolTableRecord
100
AcDbLinetypeTableRecord
  2
Continuous
 70
0
  3
Solid line
 72
65
 73
0
 40
0.0
  0
LTYPE
  5
31
100
AcDbSymbolTableRecord
100
AcDbLinetypeTableRecord
  2
ACAD_ISO15W100
 70
0
  3
ISO double-dash triple-dot __ __ . . . __ __ . .
 72
65
 73
10
 40
39.0
 49
12.0
 74
0
 49
-3.0
 74
0
 49
12.0
 74
0
 49
-3.0
 74
0
 49
0.0
 74
0
 49
-3.0
 74
0
 49
0.0
 74
0
 49
-3.0
 74
0
 49
0.0
 74
0
 49
-3.0
 74
0
  0
LTYPE
  5
32
100
AcDbSymbolTableRecord
100
AcDbLinetypeTableRecord
  2
HOT_WATER_SUPPLY
 70
0
  3
Hot water supply ---- HW ---- HW ---- HW ----
 72
65
 73
3
 40
22.8599999999999994
 49
12.6999999999999993
 74
0
 49
-5.0800000000000001
 74
0
 49
-5.0800000000000001
 74
0
  0
LTYPE
  5
33
100
AcDbSymbolTableRecord
100
AcDbLinetypeTableRecord
  2
DIVIDE
 70
0
  3
Divide ____ . . ____ . . ____ . . ____ . . ____
 72
65
 73
6
 40
31.75
 49
12.6999999999999993
 74
0
 49
-6.3499999999999996
 74
0
 49
0.0
 74
0
 49
-6.3499999999999996
 74
0
 49
0.0
 74
0
 49
-6.3499999999999996
 74
0
  0
LTYPE
  5
34
100
AcDbSymbolTableRecord
100
AcDbLinetypeTableRecord
  2
ACAD_ISO10W100
 70
0
  3
ISO dash dot __ . __ . __ . __ . __ . __ . __ . 
 72
65
 73
4
 40
18.0
 49
12.0
 74
0
 49
-3.0
 74
0
 49
0.0
 74
0
 49
-3.0
 74
0
  0
LTYPE
  5
35
100
AcDbSymbolTableRecord
100
AcDbLinetypeTableRecord
  2
GAS_LINE
 70
0
  3
Gas line ----GAS----GAS----GAS----GAS----GAS----GAS--
 72
65
 73
3
 40
24.1300000000000026
 49
12.6999999999999993
 74
0
 49
-5.0800000000000001
 74
0
 49
-6.3499999999999996
 74
0
  0
LTYPE
  5
36
100
AcDbSymbolTableRecord
100
AcDbLinetypeTableRecord
  2
ACAD_ISO04W100
 70
0
  3
ISO long-dash dot ____ . ____ . ____ . ____ . _
 72
65
 73
4
 40
30.0
 49
24.0
 74
0
 49
-3.0
 74
0
 49
0.0
 74
0
 49
-3.0
 74
0
  0
LTYPE
  5
14
100
AcDbSymbolTableRecord
100
AcDbLinetypeTableRecord
  2
ByBlock
 70
0
  3

 72
65
 73
0
 40
0.0
  0
LTYPE
  5
37
100
AcDbSymbolTableRecord
100
AcDbLinetypeTableRecord
  2
CENTER2
 70
0
  3
Center (.5x) ___ _ ___ _ ___ _ ___ _ ___ _ ___
 72
65
 73
4
 40
28.5750000000000028
 49
19.0500000000000007
 74
0
 49
-3.1749999999999998
 74
0
 49
3.1749999999999998
 74
0
 49
-3.1749999999999998
 74
0
  0
LTYPE
  5
38
100
AcDbSymbolTableRecord
100
AcDbLinetypeTableRecord
  2
ACAD_ISO11W100
 70
0
  3
ISO double-dash dot __ __ . __ __ . __ __ . __ _
 72
65
 73
6
 40
33.0
 49
12.0
 74
0
 49
-3.0
 74
0
 49
12.0
 74
0
 49
-3.0
 74
0
 49
0.0
 74
0
 49
-3.0
 74
0
  0
LTYPE
  5
39
100
AcDbSymbolTableRecord
100
AcDbLinetypeTableRecord
  2
HIDDEN2
 70
0
  3
Hidden (.5x) _ _ _ _ _ _ _ _ _ _ _ _ _ _ _ _ _ 
 72
65
 73
2
 40
4.7624999999999993
 49
3.1749999999999998
 74
0
 49
-1.5874999999999999
 74
0
  0
LTYPE
  5
3A
100
AcDbSymbolTableRecord
100
AcDbLinetypeTableRecord
  2
BORDERX2
 70
0
  3
Border (2x) ____  ____  .  ____  ____  .  ___
 72
65
 73
6
 40
88.8999999999999915
 49
25.3999999999999986
 74
0
 49
-12.6999999999999993
 74
0
 49
25.3999999999999986
 74
0
 49
-12.6999999999999993
 74
0
 49
0.0
 74
0
 49
-12.6999999999999993
 74
0
  0
LTYPE
  5
3B
100
AcDbSymbolTableRecord
100
AcDbLinetypeTableRecord
  2
ACAD_ISO05W100
 70
0
  3
ISO long-dash double-dot ____ .. ____ .. ____ . 
 72
65
 73
6
 40
33.0
 49
24.0
 74
0
 49
-3.0
 74
0
 49
0.0
 74
0
 49
-3.0
 74
0
 49
0.0
 74
0
 49
-3.0
 74
0
  0
LTYPE
  5
3C
100
AcDbSymbolTableRecord
100
AcDbLinetypeTableRecord
  2
DASHDOTX2
 70
0
  3
Dash dot (2x) ____  .  ____  .  ____  .  ___
 72
65
 73
4
 40
50.7999999999999972
 49
25.3999999999999986
 74
0
 49
-12.6999999999999993
 74
0
 49
0.0
 74
0
 49
-12.6999999999999993
 74
0
  0
LTYPE
  5
3D
100
AcDbSymbolTableRecord
100
AcDbLinetypeTableRecord
  2
HIDDENX2
 70
0
  3
Hidden (2x) ____ ____ ____ ____ ____ ____ ____ 
 72
65
 73
2
 40
19.0499999999999972
 49
12.6999999999999993
 74
0
 49
-6.3499999999999996
 74
0
  0
LTYPE
  5
3E
100
AcDbSymbolTableRecord
100
AcDbLinetypeTableRecord
  2
CENTERX2
 70
0
  3
Center (2x) ________  __  ________  __  _____
 72
65
 73
4
 40
101.6000000000000085
 49
63.5
 74
0
 49
-12.6999999999999993
 74
0
 49
12.6999999999999993
 74
0
 49
-12.6999999999999993
 74
0
  0
LTYPE
  5
3F
100
AcDbSymbolTableRecord
100
AcDbLinetypeTableRecord
  2
BORDER2
 70
0
  3
Border (.5x) __.__.__.__.__.__.__.__.__.__.__.
 72
65
 73
6
 40
22.2249999999999979
 49
6.3499999999999996
 74
0
 49
-3.1749999999999998
 74
0
 49
6.3499999999999996
 74
0
 49
-3.1749999999999998
 74
0
 49
0.0
 74
0
 49
-3.1749999999999998
 74
0
  0
LTYPE
  5
40
100
AcDbSymbolTableRecord
100
AcDbLinetypeTableRecord
  2
DASHDOT2
 70
0
  3
Dash dot (.5x) _._._._._._._._._._._._._._._.
 72
65
 73
4
 40
12.6999999999999993
 49
6.3499999999999996
 74
0
 49
-3.1749999999999998
 74
0
 49
0.0
 74
0
 49
-3.1749999999999998
 74
0
  0
LTYPE
  5
41
100
AcDbSymbolTableRecord
100
AcDbLinetypeTableRecord
  2
ACAD_ISO12W100
 70
0
  3
ISO dash double-dot __ . . __ . . __ . . __ . . 
 72
65
 73
6
 40
21.0
 49
12.0
 74
0
 49
-3.0
 74
0
 49
0.0
 74
0
 49
-3.0
 74
0
 49
0.0
 74
0
 49
-3.0
 74
0
  0
LTYPE
  5
42
100
AcDbSymbolTableRecord
100
AcDbLinetypeTableRecord
  2
ACAD_ISO07W100
 70
0
  3
ISO dot . . . . . . . . . . . . . . . . . . . . 
 72
65
 73
2
 40
3.0
 49
0.0
 74
0
 49
-3.0
 74
0
  0
LTYPE
  5
43
100
AcDbSymbolTableRecord
100
AcDbLinetypeTableRecord
  2
ACAD_ISO06W100
 70
0
  3
ISO long-dash triple-dot ____ ... ____ ... ____
 72
65
 73
8
 40
36.0
 49
24.0
 74
0
 49
-3.0
 74
0
 49
0.0
 74
0
 49
-3.0
 74
0
 49
0.0
 74
0
 49
-3.0
 74
0
 49
0.0
 74
0
 49
-3.0
 74
0
  0
LTYPE
  5
44
100
AcDbSymbolTableRecord
100
AcDbLinetypeTableRecord
  2
CENTER
 70
0
  3
Center ____ _ ____ _ ____ _ ____ _ ____ _ ____
 72
65
 73
4
 40
50.8000000000000043
 49
31.75
 74
0
 49
-6.3499999999999996
 74
0
 49
6.3499999999999996
 74
0
 49
-6.3499999999999996
 74
0
  0
LTYPE
  5
45
100
AcDbSymbolTableRecord
100
AcDbLinetypeTableRecord
  2
HIDDEN
 70
0
  3
Hidden __ __ __ __ __ __ __ __ __ __ __ __ __ __
 72
65
 73
2
 40
9.5249999999999986
 49
6.3499999999999996
 74
0
 49
-3.1749999999999998
 74
0
  0
LTYPE
  5
46
100
AcDbSymbolTableRecord
100
AcDbLinetypeTableRecord
  2
DOTX2
 70
0
  3
Dot (2x) .  .  .  .  .  .  .  .  .  .  .  .  .  .
 72
65
 73
2
 40
12.6999999999999993
 49
0.0
 74
0
 49
-12.6999999999999993
 74
0
  0
LTYPE
  5
47
100
AcDbSymbolTableRecord
100
AcDbLinetypeTableRecord
  2
PHANTOM
 70
0
  3
Phantom ______  __  __  ______  __  __  ______ 
 72
65
 73
6
 40
63.5000000000000071
 49
31.75
 74
0
 49
-6.3499999999999996
 74
0
 49
6.3499999999999996
 74
0
 49
-6.3499999999999996
 74
0
 49
6.3499999999999996
 74
0
 49
-6.3499999999999996
 74
0
  0
LTYPE
  5
48
100
AcDbSymbolTableRecord
100
AcDbLinetypeTableRecord
  2
ACAD_ISO08W100
 70
0
  3
ISO long-dash short-dash ____ __ ____ __ ____ _
 72
65
 73
4
 40
36.0
 49
24.0
 74
0
 49
-3.0
 74
0
 49
6.0
 74
0
 49
-3.0
 74
0
  0
LTYPE
  5
49
100
AcDbSymbolTableRecord
100
AcDbLinetypeTableRecord
  2
DASHEDX2
 70
0
  3
Dashed (2x) ____  ____  ____  ____  ____  ___
 72
65
 73
2
 40
38.0999999999999943
 49
25.3999999999999986
 74
0
 49
-12.6999999999999993
 74
0
  0
LTYPE
  5
4A
100
AcDbSymbolTableRecord
100
AcDbLinetypeTableRecord
  2
DRAINAGE
 70
0
  3
Drainage ---->---->---->----
 72
65
 73
2
 40
10.1600000000000001
 49
5.0800000000000001
 74
0
 49
5.0800000000000001
 74
0
  0
LTYPE
  5
4B
100
AcDbSymbolTableRecord
100
AcDbLinetypeTableRecord
  2
ACAD_ISO02W100
 70
0
  3
ISO dash __ __ __ __ __ __ __ __ __ __ __ __ __
 72
65
 73
2
 40
15.0
 49
12.0
 74
0
 49
-3.0
 74
0
  0
LTYPE
  5
4C
100
AcDbSymbolTableRecord
100
AcDbLinetypeTableRecord
  2
PHANTOM2
 70
0
  3
Phantom (.5x) ___ _ _ ___ _ _ ___ _ _ ___ _ _
 72
65
 73
6
 40
31.7500000000000036
 49
15.875
 74
0
 49
-3.1749999999999998
 74
0
 49
3.1749999999999998
 74
0
 49
-3.1749999999999998
 74
0
 49
3.1749999999999998
 74
0
 49
-3.1749999999999998
 74
0
  0
LTYPE
  5
4D
100
AcDbSymbolTableRecord
100
AcDbLinetypeTableRecord
  2
DASHED2
 70
0
  3
Dashed (.5x) _ _ _ _ _ _ _ _ _ _ _ _ _ _ _ _ _ 
 72
65
 73
2
 40
9.5249999999999986
 49
6.3499999999999996
 74
0
 49
-3.1749999999999998
 74
0
  0
LTYPE
  5
4E
100
AcDbSymbolTableRecord
100
AcDbLinetypeTableRecord
  2
ACAD_ISO09W100
 70
0
  3
ISO long-dash double-short-dash ____ __ __ ____
 72
65
 73
6
 40
45.0
 49
24.0
 74
0
 49
-3.0
 74
0
 49
6.0
 74
0
 49
-3.0
 74
0
 49
6.0
 74
0
 49
-3.0
 74
0
  0
LTYPE
  5
4F
100
AcDbSymbolTableRecord
100
AcDbLinetypeTableRecord
  2
ACAD_ISO13W100
 70
0
  3
ISO double-dash double-dot __ __ . . __ __ . . _
 72
65
 73
8
 40
36.0
 49
12.0
 74
0
 49
-3.0
 74
0
 49
12.0
 74
0
 49
-3.0
 74
0
 49
0.0
 74
0
 49
-3.0
 74
0
 49
0.0
 74
0
 49
-3.0
 74
0
  0
LTYPE
  5
50
100
AcDbSymbolTableRecord
100
AcDbLinetypeTableRecord
  2
TRACKS
 70
0
  3
Tracks -|-|-|-|-|-|-|-|-|-|-|-|-|-|-|-|-|-|-|-|-|-|-|-|-
 72
65
 73
2
 40
7.6200000000000001
 49
3.8100000000000001
 74
0
 49
3.8100000000000001
 74
0
  0
LTYPE
  5
51
100
AcDbSymbolTableRecord
100
AcDbLinetypeTableRecord
  2
DRAINAGE2
 70
0
  3
Drainage reversed----<----<----<----
 72
65
 73
2
 40
10.1600000000000001
 49
5.0800000000000001
 74
0
 49
5.0800000000000001
 74
0
  0
LTYPE
  5
52
100
AcDbSymbolTableRecord
100
AcDbLinetypeTableRecord
  2
DOT2
 70
0
  3
Dot (.5x) ........................................
 72
65
 73
2
 40
3.1749999999999998
 49
0.0
 74
0
 49
-3.1749999999999998
 74
0
  0
LTYPE
  5
53
100
AcDbSymbolTableRecord
100
AcDbLinetypeTableRecord
  2
ZIGZAG
 70
0
  3
Zig zag /\/\/\/\/\/\/\/\/\/\/\/\/\/\/\/\/\/\/\/\/\/\/\/
 72
65
 73
4
 40
20.32254
 49
0.00254
 74
0
 49
-5.0800000000000001
 74
0
 49
-10.1600000000000001
 74
0
 49
-5.0800000000000001
 74
0
  0
LTYPE
  5
54
100
AcDbSymbolTableRecord
100
AcDbLinetypeTableRecord
  2
DASHED
 70
0
  3
Dashed __ __ __ __ __ __ __ __ __ __ __ __ __ _
 72
65
 73
2
 40
19.0499999999999972
 49
12.6999999999999993
 74
0
 49
-6.3499999999999996
 74
0
  0
LTYPE
  5
55
100
AcDbSymbolTableRecord
100
AcDbLinetypeTableRecord
  2
ACAD_ISO14W100
 70
0
  3
ISO dash triple-dot __ . . . __ . . . __ . . . _
 72
65
 73
8
 40
24.0
 49
12.0
 74
0
 49
-3.0
 74
0
 49
0.0
 74
0
 49
-3.0
 74
0
 49
0.0
 74
0
 49
-3.0
 74
0
 49
0.0
 74
0
 49
-3.0
 74
0
  0
LTYPE
  5
56
100
AcDbSymbolTableRecord
100
AcDbLinetypeTableRecord
  2
PHANTOMX2
 70
0
  3
Phantom (2x) ____________    ____    ____   _
 72
65
 73
6
 40
127.0000000000000142
 49
63.5
 74
0
 49
-12.6999999999999993
 74
0
 49
12.6999999999999993
 74
0
 49
-12.6999999999999993
 74
0
 49
12.6999999999999993
 74
0
 49
-12.6999999999999993
 74
0
  0
LTYPE
  5
57
100
AcDbSymbolTableRecord
100
AcDbLinetypeTableRecord
  2
DIVIDEX2
 70
0
  3
Divide (2x) ________  .  .  ________  .  .  _
 72
65
 73
6
 40
63.5
 49
25.3999999999999986
 74
0
 49
-12.6999999999999993
 74
0
 49
0.0
 74
0
 49
-12.6999999999999993
 74
0
 49
0.0
 74
0
 49
-12.6999999999999993
 74
0
  0
LTYPE
  5
58
100
AcDbSymbolTableRecord
100
AcDbLinetypeTableRecord
  2
BORDER
 70
0
  3
Border __ __ . __ __ . __ __ . __ __ . __ __ .
 72
65
 73
6
 40
44.4499999999999957
 49
12.6999999999999993
 74
0
 49
-6.3499999999999996
 74
0
 49
12.6999999999999993
 74
0
 49
-6.3499999999999996
 74
0
 49
0.0
 74
0
 49
-6.3499999999999996
 74
0
  0
LTYPE
  5
59
100
AcDbSymbolTableRecord
100
AcDbLinetypeTableRecord
  2
DIVIDE2
 70
0
  3
Divide (.5x) __..__..__..__..__..__..__..__.._
 72
65
 73
6
 40
15.875
 49
6.3499999999999996
 74
0
 49
-3.1749999999999998
 74
0
 49
0.0
 74
0
 49
-3.1749999999999998
 74
0
 49
0.0
 74
0
 49
-3.1749999999999998
 74
0
  0
LTYPE
  5
5A
100
AcDbSymbolTableRecord
100
AcDbLinetypeTableRecord
  2
DOT
 70
0
  3
Dot . . . . . . . . . . . . . . . . . . . . . . . .
 72
65
 73
2
 40
6.3499999999999996
 49
0.0
 74
0
 49
-6.3499999999999996
 74
0
  0
LTYPE
  5
5B
100
AcDbSymbolTableRecord
100
AcDbLinetypeTableRecord
  2
DASHDOT
 70
0
  3
Dash dot __ . __ . __ . __ . __ . __ . __ . __
 72
65
 73
4
 40
25.3999999999999986
 49
12.6999999999999993
 74
0
 49
-6.3499999999999996
 74
0
 49
0.0
 74
0
 49
-6.3499999999999996
 74
0
  0
LTYPE
  5
5C
100
AcDbSymbolTableRecord
100
AcDbLinetypeTableRecord
  2
FENCELINE1
 70
0
  3
Fenceline circle ----0-----0----0-----0----0-----0--
 72
65
 73
4
 40
36.8299999999999983
 49
6.3499999999999996
 74
0
 49
-2.54
 74
0
 49
-2.54
 74
0
 49
25.3999999999999986
 74
0
  0
LTYPE
  5
5D
100
AcDbSymbolTableRecord
100
AcDbLinetypeTableRecord
  2
BATTING
 70
0
  3
Batting SSSSSSSSSSSSSSSSSSSSSSSSSSSSSSSSSSSSSSSSSSSSSSS
 72
65
 73
4
 40
10.1625399999999999
 49
0.00254
 74
0
 49
-2.54
 74
0
 49
-5.0800000000000001
 74
0
 49
-2.54
 74
0
  0
LTYPE
  5
5E
100
AcDbSymbolTableRecord
100
AcDbLinetypeTableRecord
  2
ACAD_ISO03W100
 70
0
  3
ISO dash space __    __    __    __    __    __
 72
65
 73
2
 40
30.0
 49
12.0
 74
0
 49
-18.0
 74
0
  0
LTYPE
  5
15
100
AcDbSymbolTableRecord
100
AcDbLinetypeTableRecord
  2
ByLayer
 70
0
  3

 72
65
 73
0
 40
0.0
  0
LTYPE
  5
5F
100
AcDbSymbolTableRecord
100
AcDbLinetypeTableRecord
  2
FENCELINE2
 70
0
  3
Fenceline square ----[]-----[]----[]-----[]----[]---
 72
65
 73
4
 40
36.8299999999999983
 49
6.3499999999999996
 74
0
 49
-2.54
 74
0
 49
-2.54
 74
0
 49
25.3999999999999986
 74
0
  0
ENDTAB
  0
TABLE
  2
LAYER
  5
2
100
AcDbSymbolTable
 70
2
  0
LAYER
  5
60
100
AcDbSymbolTableRecord
100
AcDbLayerTableRecord
  2
BLACK
 70
0
 62
1
420
16711680
  6
Continuous
370
-3
390
F
  0
LAYER
  5
10
100
AcDbSymbolTableRecord
100
AcDbLayerTableRecord
  2
0
 70
0
 62
7
420
16777215
  6
Continuous
370
25
390
F
  0
ENDTAB
  0
TABLE
  2
STYLE
  5
3
100
AcDbSymbolTable
 70
1
  0
STYLE
  5
61
100
AcDbSymbolTableRecord
100
AcDbTextStyleTableRecord
  2
Standard
 70
0
 40
0.0
 41
1.0
 50
0.0
 71
0
 42
2.5
  3

  4

1001
ACAD
1000
txt
1071
0
  0
ENDTAB
  0
TABLE
  2
VIEW
  5
6
100
AcDbSymbolTable
 70
0
  0
ENDTAB
  0
TABLE
  2
UCS
  5
7
100
AcDbSymbolTable
 70
0
  0
ENDTAB
  0
TABLE
  2
APPID
  5
9
100
AcDbSymbolTable
 70
1
  0
APPID
  5
12
100
AcDbSymbolTableRecord
100
AcDbRegAppTableRecord
  2
ACAD
 70
0
  0
APPID
  5
62
100
AcDbSymbolTableRecord
100
AcDbRegAppTableRecord
  2
QCAD
 70
0
  0
ENDTAB
  0
TABLE
  2
DIMSTYLE
  5
A
100
AcDbSymbolTable
 70
1
100
AcDbDimStyleTable
 71
0
  0
DIMSTYLE
105
27
100
AcDbSymbolTableRecord
100
AcDbDimStyleTableRecord
  2
Standard
 41
2.5
 42
0.625
 43
3.75
 44
1.25
 70
0
 73
0
 74
0
 77
1
 78
8
140
2.5
141
2.5
143
0.03937007874016
147
0.625
171
3
172
1
271
2
272
2
274
3
278
44
283
0
284
8
340
61
  0
ENDTAB
  0
TABLE
  2
BLOCK_RECORD
  5
1
100
AcDbSymbolTable
 70
1
  0
BLOCK_RECORD
  5
1F
100
AcDbSymbolTableRecord
100
AcDbBlockTableRecord
  2
*Model_Space
340
22
  0
BLOCK_RECORD
  5
1B
100
AcDbSymbolTableRecord
100
AcDbBlockTableRecord
  2
*Paper_Space
340
1E
  0
BLOCK_RECORD
  5
23
100
AcDbSymbolTableRecord
100
AcDbBlockTableRecord
  2
*Paper_Space0
340
26
  0
ENDTAB
  0
ENDSEC
  0
SECTION
  2
BLOCKS
  0
BLOCK
  5
20
100
AcDbEntity
  8
0
100
AcDbBlockBegin
  2
*Model_Space
 70
0
 10
0.0
 20
0.0
 30
0.0
  3
*Model_Space
  1

  0
ENDBLK
  5
21
100
AcDbEntity
  8
0
100
AcDbBlockEnd
  0
BLOCK
  5
1C
100
AcDbEntity
 67
1
  8
0
100
AcDbBlockBegin
  2
*Paper_Space
 70
0
 10
0.0
 20
0.0
 30
0.0
  3
*Paper_Space
  1

  0
ENDBLK
  5
1D
100
AcDbEntity
 67
1
  8
0
100
AcDbBlockEnd
  0
BLOCK
  5
24
100
AcDbEntity
  8
0
100
AcDbBlockBegin
  2
*Paper_Space0
 70
0
 10
0.0
 20
0.0
 30
0.0
  3
*Paper_Space0
  1

  0
ENDBLK
  5
25
100
AcDbEntity
  8
0
100
AcDbBlockEnd
  0
ENDSEC
  0
SECTION
  2
ENTITIES
  0
CIRCLE
  5
63
100
AcDbEntity
100
AcDbCircle
  8
BLACK
 62
256
370
-1
 48
1.0
  6
ByLayer
 10
10.9860766506175001
 20
18.5191596688088111
 30
0.0
 40
1.5
  0
CIRCLE
  5
64
100
AcDbEntity
100
AcDbCircle
  8
BLACK
 62
256
370
-1
 48
1.0
  6
ByLayer
 10
85.4587523915236034
 20
18.5202055374436192
 30
0.0
 40
1.5
  0
LINE
  5
65
100
AcDbEntity
100
AcDbLine
  8
BLACK
 62
256
370
-1
 48
1.0
  6
ByLayer
 10
88.9587373773548222
 20
19.0176292614767704
 30
0.0
 11
88.9587373773548222
 21
13.5491959658941692
 31
0.0
  0
LINE
  5
66
100
AcDbEntity
100
AcDbLine
  8
BLACK
 62
256
370
-1
 48
1.0
  6
ByLayer
 10
7.4860626226451998
 20
19.0187981541289197
 30
0.0
 11
7.4860626226451998
 21
13.5503805916339992
 31
0.0
  0
LINE
  5
67
100
AcDbEntity
100
AcDbLine
  8
BLACK
 62
256
370
-1
 48
1.0
  6
ByLayer
 10
57.9140843503174665
 20
4.4057065932946671
 30
0.0
 11
49.2298590185151426
 21
3.5264647594866569
 31
0.0
  0
LINE
  5
68
100
AcDbEntity
100
AcDbLine
  8
BLACK
 62
256
370
-1
 48
1.0
  6
ByLayer
 10
47.2149440286383211
 20
3.5264948515745971
 30
0.0
 11
38.530709758978567
 21
4.405999642379669
 31
0.0
  0
LINE
  5
69
100
AcDbEntity
100
AcDbLine
  8
BLACK
 62
256
370
-1
 48
1.0
  6
ByLayer
 10
37.5532517610084327
 20
4.5541107383357939
 30
0.0
 11
28.1675745625144103
 21
6.4550574241741288
 31
0.0
  0
LINE
  5
6A
100
AcDbEntity
100
AcDbLine
  8
BLACK
 62
256
370
-1
 48
1.0
  6
ByLayer
 10
27.5455817414206514
 20
6.6018700677921913
 30
0.0
 11
8.9646512424763003
 21
11.6195439406895709
 31
0.0
  0
LINE
  5
6B
100
AcDbEntity
100
AcDbLine
  8
BLACK
 62
256
370
-1
 48
1.0
  6
ByLayer
 10
58.8915554224383726
 20
4.5537902449645458
 30
0.0
 11
68.9039180071865758
 21
6.5813617652358118
 31
0.0
  0
LINE
  5
6C
100
AcDbEntity
100
AcDbLine
  8
BLACK
 62
256
370
-1
 48
1.0
  6
ByLayer
 10
68.2819126101926201
 20
6.4345649045490632
 30
0.0
 11
87.4800944527970614
 21
11.6183446510886199
 31
0.0
  0
LINE
  5
6D
100
AcDbEntity
100
AcDbLine
  8
BLACK
 62
256
370
-1
 48
1.0
  6
ByLayer
 10
9.4860927982563013
 20
21.0187981539012902
 30
0.0
 11
86.9587675529659236
 21
21.0176292612491693
 31
0.0
  0
ARC
  5
6E
100
AcDbEntity
  8
BLACK
 62
256
370
-1
 48
1.0
  6
ByLayer
100
AcDbCircle
 10
9.4860626226451998
 20
19.0187981541289197
 30
0.0
 40
2.0
100
AcDbArc
 50
89.9991355324197855
 51
180.0
  0
ARC
  5
6F
100
AcDbEntity
  8
BLACK
 62
256
370
-1
 48
1.0
  6
ByLayer
100
AcDbCircle
 10
86.9587373773548507
 20
19.0176292614767704
 30
0.0
 40
2.0
100
AcDbArc
 50
0.0
 51
89.9991355324206239
  0
ARC
  5
70
100
AcDbEntity
  8
BLACK
 62
256
370
-1
 48
1.0
  6
ByLayer
100
AcDbCircle
 10
86.9587373773548222
 20
13.5491959658941692
 30
0.0
 40
2.0
100
AcDbArc
 50
285.1103279719521879
 51
0.0
  0
ARC
  5
71
100
AcDbEntity
  8
BLACK
 62
256
370
-1
 48
1.0
  6
ByLayer
100
AcDbCircle
 10
9.4860626226451714
 20
13.5503805916339992
 30
0.0
 40
2.0
100
AcDbArc
 50
180.0
 51
254.8880605919756022
  0
ARC
  5
72
100
AcDbEntity
  8
BLACK
 62
256
370
-1
 48
1.0
  6
ByLayer
100
AcDbCircle
 10
48.2225501104188368
 20
13.4756018458710702
 30
0.0
 40
10.0
100
AcDbArc
 50
264.2170286511781114
 51
275.7812599618454215
  0
ARC
  5
73
100
AcDbEntity
  8
BLACK
 62
256
370
-1
 48
1.0
  6
ByLayer
100
AcDbCircle
 10
39.5383158407590898
 20
14.3551066366761102
 30
0.0
 40
10.0
100
AcDbArc
 50
258.5503685857709115
 51
264.2170286511781114
  0
ARC
  5
74
100
AcDbEntity
  8
BLACK
 62
256
370
-1
 48
1.0
  6
ByLayer
100
AcDbCircle
 10
30.1526386422650994
 20
16.2560533225145285
 30
0.0
 40
10.0
100
AcDbArc
 50
254.8880605919755169
 51
258.5503685857707978
  0
ARC
  5
75
100
AcDbEntity
  8
BLACK
 62
256
370
-1
 48
1.0
  6
ByLayer
100
AcDbCircle
 10
56.906775442221182
 20
14.3548436796791101
 30
0.0
 40
10.0
100
AcDbArc
 50
275.7812599618454215
 51
281.4479705976530113
  0
ARC
  5
76
100
AcDbEntity
  8
BLACK
 62
256
370
-1
 48
1.0
  6
ByLayer
100
AcDbCircle
 10
70.8886979874037593
 20
-3.2196916694786921
 30
0.0
 40
10.0
100
AcDbArc
 50
101.4479705976530965
 51
105.1103279719518042
  0
LINE
  5
77
100
AcDbEntity
100
AcDbLine
  8
BLACK
 62
256
370
-1
 48
1.0
  6
ByLayer
 10
43.7028610042096375
 20
16.5147646210812695
 30
0.0
 11
43.7028610042096375
 21
9.5147646210812695
 31
0.0
  0
LINE
  5
78
100
AcDbEntity
100
AcDbLine
  8
BLACK
 62
256
370
-1
 48
1.0
  6
ByLayer
 10
43.7028610042096375
 20
9.5147646210812695
 30
0.0
 11
44.7028610042096375
 21
9.5147646210812695
 31
0.0
  0
LINE
  5
79
100
AcDbEntity
100
AcDbLine
  8
BLACK
 62
256
370
-1
 48
1.0
  6
ByLayer
 10
44.7028610042096375
 20
9.5147646210812695
 30
0.0
 11
44.7028610042096375
 21
15.5147646210812695
 31
0.0
  0
LINE
  5
7A
100
AcDbEntity
100
AcDbLine
  8
BLACK
 62
256
370
-1
 48
1.0
  6
ByLayer
 10
44.7028610042096375
 20
15.5147646210812695
 30
0.0
 11
47.7028610042096375
 21
15.5147646210812695
 31
0.0
  0
LINE
  5
7B
100
AcDbEntity
100
AcDbLine
  8
BLACK
 62
256
370
-1
 48
1.0
  6
ByLayer
 10
47.7028610042096375
 20
15.5147646210812695
 30
0.0
 11
47.7028610042096375
 21
16.5147646210812695
 31
0.0
  0
LINE
  5
7C
100
AcDbEntity
100
AcDbLine
  8
BLACK
 62
256
370
-1
 48
1.0
  6
ByLayer
 10
47.7028610042096375
 20
16.5147646210812695
 30
0.0
 11
43.7028610042096375
 21
16.5147646210812695
 31
0.0
  0
LINE
  5
7D
100
AcDbEntity
100
AcDbLine
  8
BLACK
 62
256
370
-1
 48
1.0
  6
ByLayer
 10
45.7028610042096375
 20
13.5147646210812695
 30
0.0
 11
45.7028610042096375
 21
12.5147646210812695
 31
0.0
  0
LINE
  5
7E
100
AcDbEntity
100
AcDbLine
  8
BLACK
 62
256
370
-1
 48
1.0
  6
ByLayer
 10
45.7028610042096375
 20
12.5147646210812695
 30
0.0
 11
46.7028610042096375
 21
12.5147646210812695
 31
0.0
  0
LINE
  5
7F
100
AcDbEntity
100
AcDbLine
  8
BLACK
 62
256
370
-1
 48
1.0
  6
ByLayer
 10
46.7028610042096375
 20
12.5147646210812695
 30
0.0
 11
46.7028610042096375
 21
13.5147646210812695
 31
0.0
  0
LINE
  5
80
100
AcDbEntity
100
AcDbLine
  8
BLACK
 62
256
370
-1
 48
1.0
  6
ByLayer
 10
46.7028610042096375
 20
13.5147646210812695
 30
0.0
 11
45.7028610042096375
 21
13.5147646210812695
 31
0.0
  0
LINE
  5
81
100
AcDbEntity
100
AcDbLine
  8
BLACK
 62
256
370
-1
 48
1.0
  6
ByLayer
 10
47.7028610042096375
 20
9.5147646210812695
 30
0.0
 11
48.7028610042096375
 21
16.5147646210812695
 31
0.0
  0
LINE
  5
82
100
AcDbEntity
100
AcDbLine
  8
BLACK
 62
256
370
-1
 48
1.0
  6
ByLayer
 10
48.7028610042096375
 20
16.5147646210812695
 30
0.0
 11
52.7028610042096375
 21
16.5147646210812695
 31
0.0
  0
LINE
  5
83
100
AcDbEntity
100
AcDbLine
  8
BLACK
 62
256
370
-1
 48
1.0
  6
ByLayer
 10
52.7028610042096375
 20
16.5147646210812695
 30
0.0
 11
52.7028610042096375
 21
15.5147646210812695
 31
0.0
  0
LINE
  5
84
100
AcDbEntity
100
AcDbLine
  8
BLACK
 62
256
370
-1
 48
1.0
  6
ByLayer
 10
48.7028610042096375
 20
9.5147646210812695
 30
0.0
 11
47.7028610042096375
 21
9.5147646210812695
 31
0.0
  0
LINE
  5
85
100
AcDbEntity
100
AcDbLine
  8
BLACK
 62
256
370
-1
 48
1.0
  6
ByLayer
 10
51.3028610042096389
 20
13.5147646210812393
 30
0.0
 11
51.3028610042096389
 21
12.5147646210812393
 31
0.0
  0
LINE
  5
86
100
AcDbEntity
100
AcDbLine
  8
BLACK
 62
256
370
-1
 48
1.0
  6
ByLayer
 10
51.3028610042096389
 20
13.5147646210812393
 30
0.0
 11
50.3028610042096389
 21
13.5147646210812393
 31
0.0
  0
LINE
  5
87
100
AcDbEntity
100
AcDbLine
  8
BLACK
 62
256
370
-1
 48
1.0
  6
ByLayer
 10
51.3028610042096389
 20
12.5147646210812393
 30
0.0
 11
50.1493657887813313
 21
12.5148123736084393
 31
0.0
  0
LINE
  5
88
100
AcDbEntity
100
AcDbLine
  8
BLACK
 62
256
370
-1
 48
1.0
  6
ByLayer
 10
50.1493657887813313
 20
12.5148123736084393
 30
0.0
 11
50.3028610042096389
 21
13.5147646210812393
 31
0.0
  0
LINE
  5
89
100
AcDbEntity
100
AcDbLine
  8
BLACK
 62
256
370
-1
 48
1.0
  6
ByLayer
 10
49.5701564059046831
 20
15.5147646210812695
 30
0.0
 11
52.7028610042096375
 21
15.5147646210812695
 31
0.0
  0
LINE
  5
8A
100
AcDbEntity
100
AcDbLine
  8
BLACK
 62
256
370
-1
 48
1.0
  6
ByLayer
 10
49.5701564059046831
 20
15.5147646210812695
 30
0.0
 11
48.7028610042096375
 21
9.5147646210812695
 31
0.0
  0
LINE
  5
8B
100
AcDbEntity
100
AcDbLine
  8
BLACK
 62
256
370
-1
 48
1.0
  6
ByLayer
 10
49.7231660933140418
 20
9.5147646210812695
 30
0.0
 11
49.8660232361711806
 21
10.5147646210812695
 31
0.0
  0
LINE
  5
8C
100
AcDbEntity
100
AcDbLine
  8
BLACK
 62
256
370
-1
 48
1.0
  6
ByLayer
 10
49.8660232361711806
 20
10.5147646210812695
 30
0.0
 11
52.7028610042096375
 21
10.5147646210812695
 31
0.0
  0
LINE
  5
8D
100
AcDbEntity
100
AcDbLine
  8
BLACK
 62
256
370
-1
 48
1.0
  6
ByLayer
 10
52.7028610042096375
 20
10.5147646210812695
 30
0.0
 11
52.7028610042096375
 21
9.5147646210812695
 31
0.0
  0
LINE
  5
8E
100
AcDbEntity
100
AcDbLine
  8
BLACK
 62
256
370
-1
 48
1.0
  6
ByLayer
 10
52.7028610042096375
 20
9.5147646210812695
 30
0.0
 11
49.7231660933140418
 21
9.5147646210812695
 31
0.0
  0
LINE
  5
8F
100
AcDbEntity
100
AcDbLine
  8
BLACK
 62
256
370
-1
 48
1.0
  6
ByLayer
 10
42.7028610042096375
 20
13.5147646210812695
 30
0.0
 11
42.7028610042096375
 21
17.5147646210812695
 31
0.0
  0
LINE
  5
90
100
AcDbEntity
100
AcDbLine
  8
BLACK
 62
256
370
-1
 48
1.0
  6
ByLayer
 10
53.7028610042096375
 20
17.5147646210812695
 30
0.0
 11
53.7028610042096375
 21
13.5147646210812695
 31
0.0
  0
LINE
  5
91
100
AcDbEntity
100
AcDbLine
  8
BLACK
 62
256
370
-1
 48
1.0
  6
ByLayer
 10
53.7028610042096375
 20
13.5147646210812695
 30
0.0
 11
54.7028610042096375
 21
13.5147646210812695
 31
0.0
  0
LINE
  5
92
100
AcDbEntity
100
AcDbLine
  8
BLACK
 62
256
370
-1
 48
1.0
  6
ByLayer
 10
54.7028610042096375
 20
13.5147646210812695
 30
0.0
 11
54.7028610042096375
 21
18.5147646210812695
 31
0.0
  0
LINE
  5
93
100
AcDbEntity
100
AcDbLine
  8
BLACK
 62
256
370
-1
 48
1.0
  6
ByLayer
 10
41.7028610042096375
 20
18.5147646210812695
 30
0.0
 11
41.7028610042096375
 21
13.5147646210812695
 31
0.0
  0
LINE
  5
94
100
AcDbEntity
100
AcDbLine
  8
BLACK
 62
256
370
-1
 48
1.0
  6
ByLayer
 10
41.7028610042096375
 20
13.5147646210812695
 30
0.0
 11
42.7028610042096375
 21
13.5147646210812695
 31
0.0
  0
LINE
  5
95
100
AcDbEntity
100
AcDbLine
  8
BLACK
 62
256
370
-1
 48
1.0
  6
ByLayer
 10
41.7028610042096375
 20
12.5147646210812695
 30
0.0
 11
42.7028610042096375
 21
12.5147646210812695
 31
0.0
  0
LINE
  5
96
100
AcDbEntity
100
AcDbLine
  8
BLACK
 62
256
370
-1
 48
1.0
  6
ByLayer
 10
42.7028610042096375
 20
12.5147646210812695
 30
0.0
 11
42.7028610042096375
 21
8.5147646210812695
 31
0.0
  0
LINE
  5
97
100
AcDbEntity
100
AcDbLine
  8
BLACK
 62
256
370
-1
 48
1.0
  6
ByLayer
 10
53.7028610042096375
 20
8.5147646210812695
 30
0.0
 11
53.7028610042096375
 21
12.5147646210812695
 31
0.0
  0
LINE
  5
98
100
AcDbEntity
100
AcDbLine
  8
BLACK
 62
256
370
-1
 48
1.0
  6
ByLayer
 10
53.7028610042096375
 20
12.5147646210812695
 30
0.0
 11
54.7028610042096375
 21
12.5147646210812695
 31
0.0
  0
LINE
  5
99
100
AcDbEntity
100
AcDbLine
  8
BLACK
 62
256
370
-1
 48
1.0
  6
ByLayer
 10
54.7028610042096375
 20
12.5147646210812695
 30
0.0
 11
54.7028610042096375
 21
7.5147646210812704
 31
0.0
  0
LINE
  5
9A
100
AcDbEntity
100
AcDbLine
  8
BLACK
 62
256
370
-1
 48
1.0
  6
ByLayer
 10
41.7028610042096375
 20
7.5147646210812704
 30
0.0
 11
41.7028610042096375
 21
12.5147646210812695
 31
0.0
  0
LINE
  5
9B
100
AcDbEntity
100
AcDbLine
  8
BLACK
 62
256
370
-1
 48
1.0
  6
ByLayer
 10
18.0021080904597603
 20
35.4447444064690771
 30
0.0
 11
17.8486742660771007
 21
35.1378767577037081
 31
0.0
  0
LINE
  5
9C
100
AcDbEntity
100
AcDbLine
  8
BLACK
 62
256
370
-1
 48
1.0
  6
ByLayer
 10
17.8486742660771007
 20
35.1378767577037081
 30
0.0
 11
18.1555419148424413
 21
34.9460844772253623
 31
0.0
  0
LINE
  5
9D
100
AcDbEntity
100
AcDbLine
  8
BLACK
 62
256
370
-1
 48
1.0
  6
ByLayer
 10
18.1555419148424413
 20
34.9460844772253623
 30
0.0
 11
17.9829288624119386
 21
34.6200376004121608
 31
0.0
  0
LINE
  5
9E
100
AcDbEntity
100
AcDbLine
  8
BLACK
 62
256
370
-1
 48
1.0
  6
ByLayer
 10
17.9829288624119386
 20
34.6200376004121608
 30
0.0
 11
18.1939003709381417
 21
34.6008583723643071
 31
0.0
  0
LINE
  5
9F
100
AcDbEntity
100
AcDbLine
  8
BLACK
 62
256
370
-1
 48
1.0
  6
ByLayer
 10
18.1939003709381417
 20
34.6008583723643071
 30
0.0
 11
18.2514380550816213
 21
34.3707076357903034
 31
0.0
  0
LINE
  5
A0
100
AcDbEntity
100
AcDbLine
  8
BLACK
 62
256
370
-1
 48
1.0
  6
ByLayer
 10
18.2514380550816213
 20
34.3707076357903034
 30
0.0
 11
18.3999999999999808
 21
34.2195772789478383
 31
0.0
  0
LINE
  5
A1
100
AcDbEntity
100
AcDbLine
  8
BLACK
 62
256
370
-1
 48
1.0
  6
ByLayer
 10
18.3999999999999808
 20
34.2195772789478383
 30
0.0
 11
18.5199472477513289
 21
34.4857830040773194
 31
0.0
  0
LINE
  5
A2
100
AcDbEntity
100
AcDbLine
  8
BLACK
 62
256
370
-1
 48
1.0
  6
ByLayer
 10
18.5199472477513289
 20
34.4857830040773194
 30
0.0
 11
18.7500979843253504
 21
34.5624999162686493
 31
0.0
  0
LINE
  5
A3
100
AcDbEntity
100
AcDbLine
  8
BLACK
 62
256
370
-1
 48
1.0
  6
ByLayer
 10
18.7500979843253504
 20
34.5624999162686493
 30
0.0
 11
18.7500979843253504
 21
34.5624999162686493
 31
0.0
  0
LINE
  5
A4
100
AcDbEntity
100
AcDbLine
  8
BLACK
 62
256
370
-1
 48
1.0
  6
ByLayer
 10
18.7500979843253504
 20
34.5624999162686493
 30
0.0
 11
18.7500979843253504
 21
34.0830192150727669
 31
0.0
  0
LINE
  5
A5
100
AcDbEntity
100
AcDbLine
  8
BLACK
 62
256
370
-1
 48
1.0
  6
ByLayer
 10
18.7500979843253504
 20
34.0830192150727669
 30
0.0
 11
18.5007680197034894
 21
33.852868478498749
 31
0.0
  0
LINE
  5
A6
100
AcDbEntity
100
AcDbLine
  8
BLACK
 62
256
370
-1
 48
1.0
  6
ByLayer
 10
18.5007680197034894
 20
33.852868478498749
 30
0.0
 11
18.6350226160383592
 21
33.699434654116061
 31
0.0
  0
LINE
  5
A7
100
AcDbEntity
100
AcDbLine
  8
BLACK
 62
256
370
-1
 48
1.0
  6
ByLayer
 10
18.6350226160383592
 20
33.699434654116061
 30
0.0
 11
18.6350226160383592
 21
33.699434654116061
 31
0.0
  0
LINE
  5
A8
100
AcDbEntity
100
AcDbLine
  8
BLACK
 62
256
370
-1
 48
1.0
  6
ByLayer
 10
18.6350226160383592
 20
33.699434654116061
 30
0.0
 11
18.8076356684688584
 21
33.4117462333985316
 31
0.0
  0
LINE
  5
A9
100
AcDbEntity
100
AcDbLine
  8
BLACK
 62
256
370
-1
 48
1.0
  6
ByLayer
 10
18.8076356684688584
 20
33.4117462333985316
 30
0.0
 11
18.8268148965167086
 21
33.1432370407288204
 31
0.0
  0
LINE
  5
AA
100
AcDbEntity
100
AcDbLine
  8
BLACK
 62
256
370
-1
 48
1.0
  6
ByLayer
 10
18.8268148965167086
 20
33.1432370407288204
 30
0.0
 11
18.6925603001818388
 21
32.8747278480591092
 31
0.0
  0
LINE
  5
AB
100
AcDbEntity
100
AcDbLine
  8
BLACK
 62
256
370
-1
 48
1.0
  6
ByLayer
 10
18.6925603001818388
 20
32.8747278480591092
 30
0.0
 11
18.3665134233686409
 21
32.8171901639156331
 31
0.0
  0
LINE
  5
AC
100
AcDbEntity
100
AcDbLine
  8
BLACK
 62
256
370
-1
 48
1.0
  6
ByLayer
 10
18.3665134233686409
 20
32.8171901639156331
 30
0.0
 11
18.3089757392251293
 21
32.4911432871024033
 31
0.0
  0
LINE
  5
AD
100
AcDbEntity
100
AcDbLine
  8
BLACK
 62
256
370
-1
 48
1.0
  6
ByLayer
 10
18.3089757392251293
 20
32.4911432871024033
 30
0.0
 11
18.21307959898596
 21
32.1459171822413623
 31
0.0
  0
LINE
  5
AE
100
AcDbEntity
100
AcDbLine
  8
BLACK
 62
256
370
-1
 48
1.0
  6
ByLayer
 10
18.21307959898596
 20
32.1459171822413623
 30
0.0
 11
18.1171834587467799
 21
31.7431533932368097
 31
0.0
  0
LINE
  5
AF
100
AcDbEntity
100
AcDbLine
  8
BLACK
 62
256
370
-1
 48
1.0
  6
ByLayer
 10
18.1171834587467799
 20
31.7431533932368097
 30
0.0
 11
17.867853494124919
 21
31.5705403408062999
 31
0.0
  0
LINE
  5
B0
100
AcDbEntity
100
AcDbLine
  8
BLACK
 62
256
370
-1
 48
1.0
  6
ByLayer
 10
18.0021080904597603
 20
35.4447444064690771
 30
0.0
 11
18.3999999999999808
 21
35.2195772789478383
 31
0.0
  0
LINE
  5
B1
100
AcDbEntity
100
AcDbLine
  8
BLACK
 62
256
370
-1
 48
1.0
  6
ByLayer
 10
18.3999999999999808
 20
35.2195772789478383
 30
0.0
 11
18.3856926514164911
 21
35.6365366869474371
 31
0.0
  0
LINE
  5
B2
100
AcDbEntity
100
AcDbLine
  8
BLACK
 62
256
370
-1
 48
1.0
  6
ByLayer
 10
18.3856926514164911
 20
35.6365366869474371
 30
0.0
 11
18.7692772123732006
 21
35.5981782308517722
 31
0.0
  0
LINE
  5
B3
100
AcDbEntity
100
AcDbLine
  8
BLACK
 62
256
370
-1
 48
1.0
  6
ByLayer
 10
18.7692772123732006
 20
35.5981782308517722
 30
0.0
 11
18.8268148965167086
 21
35.2913105820864033
 31
0.0
  0
LINE
  5
B4
100
AcDbEntity
100
AcDbLine
  8
BLACK
 62
256
370
-1
 48
1.0
  6
ByLayer
 10
18.8268148965167086
 20
35.2913105820864033
 30
0.0
 11
19.0761448611385696
 21
35.1954144418472197
 31
0.0
  0
LINE
  5
B5
100
AcDbEntity
100
AcDbLine
  8
BLACK
 62
256
370
-1
 48
1.0
  6
ByLayer
 10
19.0761448611385696
 20
35.1954144418472197
 30
0.0
 11
19.1336825452820598
 21
35.5214613186604424
 31
0.0
  0
LINE
  5
B6
100
AcDbEntity
100
AcDbLine
  8
BLACK
 62
256
370
-1
 48
1.0
  6
ByLayer
 10
19.1336825452820598
 20
35.5214613186604424
 30
0.0
 11
19.3999999999999808
 21
35.2195772789478383
 31
0.0
  0
LINE
  5
B7
100
AcDbEntity
100
AcDbLine
  8
BLACK
 62
256
370
-1
 48
1.0
  6
ByLayer
 10
19.3999999999999808
 20
35.2195772789478383
 30
0.0
 11
19.6515217025736284
 21
35.4255651784212731
 31
0.0
  0
LINE
  5
B8
100
AcDbEntity
100
AcDbLine
  8
BLACK
 62
256
370
-1
 48
1.0
  6
ByLayer
 10
19.6515217025736284
 20
35.4255651784212731
 30
0.0
 11
19.6323424745257888
 21
35.8283289674257901
 31
0.0
  0
LINE
  5
B9
100
AcDbEntity
100
AcDbLine
  8
BLACK
 62
256
370
-1
 48
1.0
  6
ByLayer
 10
19.6323424745257888
 20
35.8283289674257901
 30
0.0
 11
19.9583893513390116
 21
35.6173574588996189
 31
0.0
  0
LINE
  5
BA
100
AcDbEntity
100
AcDbLine
  8
BLACK
 62
256
370
-1
 48
1.0
  6
ByLayer
 10
19.9583893513390116
 20
35.6173574588996189
 30
0.0
 11
20.2268985440086908
 21
35.6173574588996189
 31
0.0
  0
LINE
  5
BB
100
AcDbEntity
100
AcDbLine
  8
BLACK
 62
256
370
-1
 48
1.0
  6
ByLayer
 10
20.2268985440086908
 20
35.6173574588996189
 30
0.0
 11
20.2652570001043593
 21
35.9242251076649666
 31
0.0
  0
LINE
  5
BC
100
AcDbEntity
100
AcDbLine
  8
BLACK
 62
256
370
-1
 48
1.0
  6
ByLayer
 10
20.2652570001043593
 20
35.9242251076649666
 30
0.0
 11
20.150181631817361
 21
36.3269888966695191
 31
0.0
  0
LINE
  5
BD
100
AcDbEntity
100
AcDbLine
  8
BLACK
 62
256
370
-1
 48
1.0
  6
ByLayer
 10
20.150181631817361
 20
36.3269888966695191
 30
0.0
 11
20.3999999999999808
 21
36.2195772789478383
 31
0.0
  0
LINE
  5
BE
100
AcDbEntity
100
AcDbLine
  8
BLACK
 62
256
370
-1
 48
1.0
  6
ByLayer
 10
20.3999999999999808
 20
36.2195772789478383
 30
0.0
 11
20.6680207891089083
 21
36.3845265808130307
 31
0.0
  0
LINE
  5
BF
100
AcDbEntity
100
AcDbLine
  8
BLACK
 62
256
370
-1
 48
1.0
  6
ByLayer
 10
20.6680207891089083
 20
36.3845265808130307
 30
0.0
 11
20.898171525682951
 21
36.4804227210522072
 31
0.0
  0
LINE
  5
C0
100
AcDbEntity
100
AcDbLine
  8
BLACK
 62
256
370
-1
 48
1.0
  6
ByLayer
 10
20.898171525682951
 20
36.4804227210522072
 30
0.0
 11
20.8789922976351114
 21
36.2119135283825173
 31
0.0
  0
LINE
  5
C1
100
AcDbEntity
100
AcDbLine
  8
BLACK
 62
256
370
-1
 48
1.0
  6
ByLayer
 10
20.8789922976351114
 20
36.2119135283825173
 30
0.0
 11
21.3999999999999808
 21
36.2195772789478383
 31
0.0
  0
LINE
  5
C2
100
AcDbEntity
100
AcDbLine
  8
BLACK
 62
256
370
-1
 48
1.0
  6
ByLayer
 10
21.3999999999999808
 20
36.2195772789478383
 30
0.0
 11
21.3584729988309903
 21
35.9434043357128132
 31
0.0
  0
LINE
  5
C3
100
AcDbEntity
100
AcDbLine
  8
BLACK
 62
256
370
-1
 48
1.0
  6
ByLayer
 10
21.3584729988309903
 20
35.9434043357128132
 30
0.0
 11
21.0516053500656106
 21
35.7516120552344603
 31
0.0
  0
LINE
  5
C4
100
AcDbEntity
100
AcDbLine
  8
BLACK
 62
256
370
-1
 48
1.0
  6
ByLayer
 10
21.0516053500656106
 20
35.7516120552344603
 30
0.0
 11
21.3776522268788405
 21
35.5214613186604424
 31
0.0
  0
LINE
  5
C5
100
AcDbEntity
100
AcDbLine
  8
BLACK
 62
256
370
-1
 48
1.0
  6
ByLayer
 10
21.3776522268788405
 20
35.5214613186604424
 30
0.0
 11
21.7036991036920313
 21
35.9050458796171483
 31
0.0
  0
LINE
  5
C6
100
AcDbEntity
100
AcDbLine
  8
BLACK
 62
256
370
-1
 48
1.0
  6
ByLayer
 10
21.7036991036920313
 20
35.9050458796171483
 30
0.0
 11
21.8763121561225695
 21
35.5981782308517722
 31
0.0
  0
LINE
  5
C7
100
AcDbEntity
100
AcDbLine
  8
BLACK
 62
256
370
-1
 48
1.0
  6
ByLayer
 10
21.8763121561225695
 20
35.5981782308517722
 30
0.0
 11
22.1831798048879101
 21
35.6173574588996189
 31
0.0
  0
LINE
  5
C8
100
AcDbEntity
100
AcDbLine
  8
BLACK
 62
256
370
-1
 48
1.0
  6
ByLayer
 10
22.1831798048879101
 20
35.6173574588996189
 30
0.0
 11
21.9146706122182309
 21
35.3680274942777473
 31
0.0
  0
LINE
  5
C9
100
AcDbEntity
100
AcDbLine
  8
BLACK
 62
256
370
-1
 48
1.0
  6
ByLayer
 10
21.9146706122182309
 20
35.3680274942777473
 30
0.0
 11
22.3999999999999808
 21
35.2195772789478383
 31
0.0
  0
LINE
  5
CA
100
AcDbEntity
100
AcDbLine
  8
BLACK
 62
256
370
-1
 48
1.0
  6
ByLayer
 10
22.3999999999999808
 20
35.2195772789478383
 30
0.0
 11
22.8352735585143307
 21
35.7899705113301323
 31
0.0
  0
LINE
  5
CB
100
AcDbEntity
100
AcDbLine
  8
BLACK
 62
256
370
-1
 48
1.0
  6
ByLayer
 10
22.8352735585143307
 20
35.7899705113301323
 30
0.0
 11
23.1037827511840383
 21
35.5789990028039327
 31
0.0
  0
LINE
  5
CC
100
AcDbEntity
100
AcDbLine
  8
BLACK
 62
256
370
-1
 48
1.0
  6
ByLayer
 10
23.1037827511840383
 20
35.5789990028039327
 30
0.0
 11
23.4873673121407514
 21
35.4447444064690771
 31
0.0
  0
LINE
  5
CD
100
AcDbEntity
100
AcDbLine
  8
BLACK
 62
256
370
-1
 48
1.0
  6
ByLayer
 10
23.4873673121407514
 20
35.4447444064690771
 30
0.0
 11
24.0052064694322986
 21
35.4255651784212731
 31
0.0
  0
LINE
  5
CE
100
AcDbEntity
100
AcDbLine
  8
BLACK
 62
256
370
-1
 48
1.0
  6
ByLayer
 10
24.0052064694322986
 20
35.4255651784212731
 30
0.0
 11
24.3999999999999808
 21
35.2195772789478383
 31
0.0
  0
LINE
  5
CF
100
AcDbEntity
100
AcDbLine
  8
BLACK
 62
256
370
-1
 48
1.0
  6
ByLayer
 10
24.3999999999999808
 20
35.2195772789478383
 30
0.0
 11
23.851772645049639
 21
35.0228013894167134
 31
0.0
  0
LINE
  5
D0
100
AcDbEntity
100
AcDbLine
  8
BLACK
 62
256
370
-1
 48
1.0
  6
ByLayer
 10
23.851772645049639
 20
35.0228013894167134
 30
0.0
 11
23.6408011365234394
 21
34.8310091089383604
 31
0.0
  0
LINE
  5
D1
100
AcDbEntity
100
AcDbLine
  8
BLACK
 62
256
370
-1
 48
1.0
  6
ByLayer
 10
23.6408011365234394
 20
34.8310091089383604
 30
0.0
 11
23.4681880840929011
 21
34.6583960565078328
 31
0.0
  0
LINE
  5
D2
100
AcDbEntity
100
AcDbLine
  8
BLACK
 62
256
370
-1
 48
1.0
  6
ByLayer
 10
23.4681880840929011
 20
34.6583960565078328
 30
0.0
 11
23.7750557328582808
 21
34.543320688220831
 31
0.0
  0
LINE
  5
D3
100
AcDbEntity
100
AcDbLine
  8
BLACK
 62
256
370
-1
 48
1.0
  6
ByLayer
 10
23.7750557328582808
 20
34.543320688220831
 30
0.0
 11
23.3999999999999808
 21
34.2195772789478383
 31
0.0
  0
LINE
  5
D4
100
AcDbEntity
100
AcDbLine
  8
BLACK
 62
256
370
-1
 48
1.0
  6
ByLayer
 10
23.3999999999999808
 20
34.2195772789478383
 30
0.0
 11
22.9887073828970188
 21
34.3131699516467776
 31
0.0
  0
LINE
  5
D5
100
AcDbEntity
100
AcDbLine
  8
BLACK
 62
256
370
-1
 48
1.0
  6
ByLayer
 10
22.9887073828970188
 20
34.3131699516467776
 30
0.0
 11
22.9503489268013503
 21
34.0254815309292624
 31
0.0
  0
LINE
  5
D6
100
AcDbEntity
100
AcDbLine
  8
BLACK
 62
256
370
-1
 48
1.0
  6
ByLayer
 10
22.9503489268013503
 20
34.0254815309292624
 30
0.0
 11
23.1804996633753717
 21
33.8336892504509024
 31
0.0
  0
LINE
  5
D7
100
AcDbEntity
100
AcDbLine
  8
BLACK
 62
256
370
-1
 48
1.0
  6
ByLayer
 10
23.1804996633753717
 20
33.8336892504509024
 30
0.0
 11
23.1804996633753717
 21
33.507642373637708
 31
0.0
  0
LINE
  5
D8
100
AcDbEntity
100
AcDbLine
  8
BLACK
 62
256
370
-1
 48
1.0
  6
ByLayer
 10
23.1804996633753717
 20
33.507642373637708
 30
0.0
 11
22.9119904707056889
 21
33.3158500931593267
 31
0.0
  0
LINE
  5
D9
100
AcDbEntity
100
AcDbLine
  8
BLACK
 62
256
370
-1
 48
1.0
  6
ByLayer
 10
22.9119904707056889
 20
33.3158500931593267
 30
0.0
 11
23.1996788914232184
 21
33.0665201285374906
 31
0.0
  0
LINE
  5
DA
100
AcDbEntity
100
AcDbLine
  8
BLACK
 62
256
370
-1
 48
1.0
  6
ByLayer
 10
23.1996788914232184
 20
33.0665201285374906
 30
0.0
 11
23.3914711719015713
 21
32.7404732517242678
 31
0.0
  0
LINE
  5
DB
100
AcDbEntity
100
AcDbLine
  8
BLACK
 62
256
370
-1
 48
1.0
  6
ByLayer
 10
23.3914711719015713
 20
32.7404732517242678
 30
0.0
 11
23.1613204353275499
 21
32.5295017431980682
 31
0.0
  0
LINE
  5
DC
100
AcDbEntity
100
AcDbLine
  8
BLACK
 62
256
370
-1
 48
1.0
  6
ByLayer
 10
23.1613204353275499
 20
32.5295017431980682
 30
0.0
 11
23.3999999999999808
 21
32.2195772789478383
 31
0.0
  0
LINE
  5
DD
100
AcDbEntity
100
AcDbLine
  8
BLACK
 62
256
370
-1
 48
1.0
  6
ByLayer
 10
23.3999999999999808
 20
32.2195772789478383
 30
0.0
 11
23.6024426804277709
 21
32.3952471468632268
 31
0.0
  0
LINE
  5
DE
100
AcDbEntity
100
AcDbLine
  8
BLACK
 62
256
370
-1
 48
1.0
  6
ByLayer
 10
23.6024426804277709
 20
32.3952471468632268
 30
0.0
 11
23.5257257682364092
 21
32.0500210420021929
 31
0.0
  0
LINE
  5
DF
100
AcDbEntity
100
AcDbLine
  8
BLACK
 62
256
370
-1
 48
1.0
  6
ByLayer
 10
23.5257257682364092
 20
32.0500210420021929
 30
0.0
 11
23.7558765048104306
 21
31.8390495334759898
 31
0.0
  0
LINE
  5
E0
100
AcDbEntity
100
AcDbLine
  8
BLACK
 62
256
370
-1
 48
1.0
  6
ByLayer
 10
23.7558765048104306
 20
31.8390495334759898
 30
0.0
 11
23.9093103291931186
 21
31.4938234286149701
 31
0.0
  0
LINE
  5
E1
100
AcDbEntity
100
AcDbLine
  8
BLACK
 62
256
370
-1
 48
1.0
  6
ByLayer
 10
23.9093103291931186
 20
31.4938234286149701
 30
0.0
 11
24.1011026096715
 21
31.2061350078974193
 31
0.0
  0
LINE
  5
E2
100
AcDbEntity
100
AcDbLine
  8
BLACK
 62
256
370
-1
 48
1.0
  6
ByLayer
 10
24.1011026096715
 20
31.2061350078974193
 30
0.0
 11
23.7942349609061203
 21
30.995163499371241
 31
0.0
  0
LINE
  5
E3
100
AcDbEntity
100
AcDbLine
  8
BLACK
 62
256
370
-1
 48
1.0
  6
ByLayer
 10
23.7942349609061203
 20
30.995163499371241
 30
0.0
 11
24.1394610657671613
 21
30.8417296749885601
 31
0.0
  0
LINE
  5
E4
100
AcDbEntity
100
AcDbLine
  8
BLACK
 62
256
370
-1
 48
1.0
  6
ByLayer
 10
24.1394610657671613
 20
30.8417296749885601
 30
0.0
 11
24.5614040828195392
 21
30.5732204823188489
 31
0.0
  0
LINE
  5
E5
100
AcDbEntity
100
AcDbLine
  8
BLACK
 62
256
370
-1
 48
1.0
  6
ByLayer
 10
24.5614040828195392
 20
30.5732204823188489
 30
0.0
 11
24.7531963632978886
 21
30.7266543067015299
 31
0.0
  0
LINE
  5
E6
100
AcDbEntity
100
AcDbLine
  8
BLACK
 62
256
370
-1
 48
1.0
  6
ByLayer
 10
24.7531963632978886
 20
30.7266543067015299
 30
0.0
 11
24.8874509596327584
 21
30.3814282018404889
 31
0.0
  0
LINE
  5
E7
100
AcDbEntity
100
AcDbLine
  8
BLACK
 62
256
370
-1
 48
1.0
  6
ByLayer
 10
24.8874509596327584
 20
30.3814282018404889
 30
0.0
 11
24.6573002230587086
 21
30.2088151494099897
 31
0.0
  0
LINE
  5
E8
100
AcDbEntity
100
AcDbLine
  8
BLACK
 62
256
370
-1
 48
1.0
  6
ByLayer
 10
24.6573002230587086
 20
30.2088151494099897
 30
0.0
 11
25.0025263279197496
 21
29.9594851847881216
 31
0.0
  0
LINE
  5
E9
100
AcDbEntity
100
AcDbLine
  8
BLACK
 62
256
370
-1
 48
1.0
  6
ByLayer
 10
25.0025263279197496
 20
29.9594851847881216
 30
0.0
 11
24.446328714532509
 21
29.9786644128359399
 31
0.0
  0
LINE
  5
EA
100
AcDbEntity
100
AcDbLine
  8
BLACK
 62
256
370
-1
 48
1.0
  6
ByLayer
 10
24.446328714532509
 20
29.9786644128359399
 30
0.0
 11
24.1202818377193218
 21
30.3238905176969809
 31
0.0
  0
LINE
  5
EB
100
AcDbEntity
100
AcDbLine
  8
BLACK
 62
256
370
-1
 48
1.0
  6
ByLayer
 10
24.1202818377193218
 20
30.3238905176969809
 30
0.0
 11
24.3504325742933396
 21
29.6909759921184104
 31
0.0
  0
LINE
  5
EC
100
AcDbEntity
100
AcDbLine
  8
BLACK
 62
256
370
-1
 48
1.0
  6
ByLayer
 10
24.3504325742933396
 20
29.6909759921184104
 30
0.0
 11
24.7340171352500704
 21
29.7485136762619184
 31
0.0
  0
LINE
  5
ED
100
AcDbEntity
100
AcDbLine
  8
BLACK
 62
256
370
-1
 48
1.0
  6
ByLayer
 10
24.7340171352500704
 20
29.7485136762619184
 30
0.0
 11
25.0600640120632612
 21
29.6142590799270806
 31
0.0
  0
LINE
  5
EE
100
AcDbEntity
100
AcDbLine
  8
BLACK
 62
256
370
-1
 48
1.0
  6
ByLayer
 10
25.0600640120632612
 20
29.6142590799270806
 30
0.0
 11
25.4436485730199706
 21
29.7101552201662606
 31
0.0
  0
LINE
  5
EF
100
AcDbEntity
100
AcDbLine
  8
BLACK
 62
256
370
-1
 48
1.0
  6
ByLayer
 10
25.4436485730199706
 20
29.7101552201662606
 30
0.0
 11
25.5970823974026587
 21
29.9978436408837901
 31
0.0
  0
LINE
  5
F0
100
AcDbEntity
100
AcDbLine
  8
BLACK
 62
256
370
-1
 48
1.0
  6
ByLayer
 10
25.5970823974026587
 20
29.9978436408837901
 30
0.0
 11
25.3999999999999808
 21
30.2195772789478383
 31
0.0
  0
LINE
  5
F1
100
AcDbEntity
100
AcDbLine
  8
BLACK
 62
256
370
-1
 48
1.0
  6
ByLayer
 10
25.3999999999999808
 20
30.2195772789478383
 30
0.0
 11
25.136780924254591
 21
30.3622489737926493
 31
0.0
  0
LINE
  5
F2
100
AcDbEntity
100
AcDbLine
  8
BLACK
 62
256
370
-1
 48
1.0
  6
ByLayer
 10
25.136780924254591
 20
30.3622489737926493
 30
0.0
 11
25.3477524327807906
 21
30.5923997103666885
 31
0.0
  0
LINE
  5
F3
100
AcDbEntity
100
AcDbLine
  8
BLACK
 62
256
370
-1
 48
1.0
  6
ByLayer
 10
25.3477524327807906
 20
30.5923997103666885
 30
0.0
 11
25.8272331339766801
 21
30.5540412542710307
 31
0.0
  0
LINE
  5
F4
100
AcDbEntity
100
AcDbLine
  8
BLACK
 62
256
370
-1
 48
1.0
  6
ByLayer
 10
25.8272331339766801
 20
30.5540412542710307
 30
0.0
 11
26.1532800107898993
 21
30.4197866579361609
 31
0.0
  0
LINE
  5
F5
100
AcDbEntity
100
AcDbLine
  8
BLACK
 62
256
370
-1
 48
1.0
  6
ByLayer
 10
26.1532800107898993
 20
30.4197866579361609
 30
0.0
 11
26.1916384668855606
 21
30.0362020969794514
 31
0.0
  0
LINE
  5
F6
100
AcDbEntity
100
AcDbLine
  8
BLACK
 62
256
370
-1
 48
1.0
  6
ByLayer
 10
26.1916384668855606
 20
30.0362020969794514
 30
0.0
 11
26.3999999999999808
 21
30.2195772789478383
 31
0.0
  0
LINE
  5
F7
100
AcDbEntity
100
AcDbLine
  8
BLACK
 62
256
370
-1
 48
1.0
  6
ByLayer
 10
26.3999999999999808
 20
30.2195772789478383
 30
0.0
 11
26.2299969229812291
 21
29.6334383079748989
 31
0.0
  0
LINE
  5
F8
100
AcDbEntity
100
AcDbLine
  8
BLACK
 62
256
370
-1
 48
1.0
  6
ByLayer
 10
26.2299969229812291
 20
29.6334383079748989
 30
0.0
 11
25.9039500461680312
 21
29.4416460274965495
 31
0.0
  0
LINE
  5
F9
100
AcDbEntity
100
AcDbLine
  8
BLACK
 62
256
370
-1
 48
1.0
  6
ByLayer
 10
25.9039500461680312
 20
29.4416460274965495
 30
0.0
 11
25.980666958359361
 21
29.8252305884532483
 31
0.0
  0
LINE
  5
FA
100
AcDbEntity
100
AcDbLine
  8
BLACK
 62
256
370
-1
 48
1.0
  6
ByLayer
 10
25.980666958359361
 20
29.8252305884532483
 30
0.0
 11
25.9423085022636997
 21
30.0553813250273016
 31
0.0
  0
LINE
  5
FB
100
AcDbEntity
100
AcDbLine
  8
BLACK
 62
256
370
-1
 48
1.0
  6
ByLayer
 10
25.9423085022636997
 20
30.0553813250273016
 30
0.0
 11
25.5970823974026302
 21
29.9978436408837901
 31
0.0
  0
LINE
  5
FC
100
AcDbEntity
100
AcDbLine
  8
BLACK
 62
256
370
-1
 48
1.0
  6
ByLayer
 10
25.9039500461680099
 20
29.441646027496521
 30
0.0
 11
26.0957423266463913
 21
29.15395760677902
 31
0.0
  0
LINE
  5
FD
100
AcDbEntity
100
AcDbLine
  8
BLACK
 62
256
370
-1
 48
1.0
  6
ByLayer
 10
26.0957423266463913
 20
29.15395760677902
 30
0.0
 11
25.9614877303115499
 21
28.9046276421571484
 31
0.0
  0
LINE
  5
FE
100
AcDbEntity
100
AcDbLine
  8
BLACK
 62
256
370
-1
 48
1.0
  6
ByLayer
 10
25.9614877303115499
 20
28.9046276421571484
 30
0.0
 11
25.8080539059288583
 21
29.15395760677902
 31
0.0
  0
LINE
  5
FF
100
AcDbEntity
100
AcDbLine
  8
BLACK
 62
256
370
-1
 48
1.0
  6
ByLayer
 10
25.8080539059288583
 20
29.15395760677902
 30
0.0
 11
25.8080539059288583
 21
29.15395760677902
 31
0.0
  0
LINE
  5
100
100
AcDbEntity
100
AcDbLine
  8
BLACK
 62
256
370
-1
 48
1.0
  6
ByLayer
 10
25.8080539059288583
 20
29.15395760677902
 30
0.0
 11
25.3999999999999808
 21
29.2195772789478383
 31
0.0
  0
LINE
  5
101
100
AcDbEntity
100
AcDbLine
  8
BLACK
 62
256
370
-1
 48
1.0
  6
ByLayer
 10
25.3999999999999808
 20
29.2195772789478383
 30
0.0
 11
25.5203654852113289
 21
28.9429860982528204
 31
0.0
  0
LINE
  5
102
100
AcDbEntity
100
AcDbLine
  8
BLACK
 62
256
370
-1
 48
1.0
  6
ByLayer
 10
25.5203654852113289
 20
28.9429860982528204
 30
0.0
 11
24.7723755913457389
 21
28.9813445543485102
 31
0.0
  0
LINE
  5
103
100
AcDbEntity
100
AcDbLine
  8
BLACK
 62
256
370
-1
 48
1.0
  6
ByLayer
 10
24.7723755913457389
 20
28.9813445543485102
 30
0.0
 11
24.3999999999999808
 21
29.2195772789478383
 31
0.0
  0
LINE
  5
104
100
AcDbEntity
100
AcDbLine
  8
BLACK
 62
256
370
-1
 48
1.0
  6
ByLayer
 10
24.3999999999999808
 20
29.2195772789478383
 30
0.0
 11
23.9093103291931186
 21
29.1731368348268596
 31
0.0
  0
LINE
  5
105
100
AcDbEntity
100
AcDbLine
  8
BLACK
 62
256
370
-1
 48
1.0
  6
ByLayer
 10
23.9093103291931186
 20
29.1731368348268596
 30
0.0
 11
23.7366972767626088
 21
28.96216532630066
 31
0.0
  0
LINE
  5
106
100
AcDbEntity
100
AcDbLine
  8
BLACK
 62
256
370
-1
 48
1.0
  6
ByLayer
 10
23.7366972767626088
 20
28.96216532630066
 30
0.0
 11
23.5999999999999908
 21
29.3195772789478291
 31
0.0
  0
LINE
  5
107
100
AcDbEntity
100
AcDbLine
  8
BLACK
 62
256
370
-1
 48
1.0
  6
ByLayer
 10
23.5999999999999908
 20
29.3195772789478291
 30
0.0
 11
23.5
 21
28.8195772789478291
 31
0.0
  0
LINE
  5
108
100
AcDbEntity
100
AcDbLine
  8
BLACK
 62
256
370
-1
 48
1.0
  6
ByLayer
 10
23.5
 20
28.8195772789478291
 30
0.0
 11
23.2999999999999794
 21
29.1195772789478191
 31
0.0
  0
LINE
  5
109
100
AcDbEntity
100
AcDbLine
  8
BLACK
 62
256
370
-1
 48
1.0
  6
ByLayer
 10
23.2999999999999794
 20
29.1195772789478191
 30
0.0
 11
23.2999999999999794
 21
29.4195772789478305
 31
0.0
  0
LINE
  5
10A
100
AcDbEntity
100
AcDbLine
  8
BLACK
 62
256
370
-1
 48
1.0
  6
ByLayer
 10
23.2999999999999794
 20
29.4195772789478305
 30
0.0
 11
23.0999999999999908
 21
29.2195772789478383
 31
0.0
  0
LINE
  5
10B
100
AcDbEntity
100
AcDbLine
  8
BLACK
 62
256
370
-1
 48
1.0
  6
ByLayer
 10
23.0999999999999908
 20
29.2195772789478383
 30
0.0
 11
22.9000000000000092
 21
29.3195772789478291
 31
0.0
  0
LINE
  5
10C
100
AcDbEntity
100
AcDbLine
  8
BLACK
 62
256
370
-1
 48
1.0
  6
ByLayer
 10
22.9000000000000092
 20
29.3195772789478291
 30
0.0
 11
23.0999999999999908
 21
29.6195772789478191
 31
0.0
  0
LINE
  5
10D
100
AcDbEntity
100
AcDbLine
  8
BLACK
 62
256
370
-1
 48
1.0
  6
ByLayer
 10
23.0999999999999908
 20
29.6195772789478191
 30
0.0
 11
22.7999999999999794
 21
29.7195772789478383
 31
0.0
  0
LINE
  5
10E
100
AcDbEntity
100
AcDbLine
  8
BLACK
 62
256
370
-1
 48
1.0
  6
ByLayer
 10
22.7999999999999794
 20
29.7195772789478383
 30
0.0
 11
22.7999999999999794
 21
29.4195772789478305
 31
0.0
  0
LINE
  5
10F
100
AcDbEntity
100
AcDbLine
  8
BLACK
 62
256
370
-1
 48
1.0
  6
ByLayer
 10
22.7999999999999794
 20
29.4195772789478305
 30
0.0
 11
22.2999999999999794
 21
29.4195772789478305
 31
0.0
  0
LINE
  5
110
100
AcDbEntity
100
AcDbLine
  8
BLACK
 62
256
370
-1
 48
1.0
  6
ByLayer
 10
22.2999999999999794
 20
29.4195772789478305
 30
0.0
 11
22.0999999999999908
 21
29.2195772789478383
 31
0.0
  0
LINE
  5
111
100
AcDbEntity
100
AcDbLine
  8
BLACK
 62
256
370
-1
 48
1.0
  6
ByLayer
 10
22.0999999999999908
 20
29.2195772789478383
 30
0.0
 11
21.5999999999999908
 21
29.8195772789478291
 31
0.0
  0
LINE
  5
112
100
AcDbEntity
100
AcDbLine
  8
BLACK
 62
256
370
-1
 48
1.0
  6
ByLayer
 10
21.5999999999999908
 20
29.8195772789478291
 30
0.0
 11
22.0
 21
29.0195772789478212
 31
0.0
  0
LINE
  5
113
100
AcDbEntity
100
AcDbLine
  8
BLACK
 62
256
370
-1
 48
1.0
  6
ByLayer
 10
22.0
 20
29.0195772789478212
 30
0.0
 11
22.0999999999999908
 21
28.4195772789478305
 31
0.0
  0
LINE
  5
114
100
AcDbEntity
100
AcDbLine
  8
BLACK
 62
256
370
-1
 48
1.0
  6
ByLayer
 10
22.0999999999999908
 20
28.4195772789478305
 30
0.0
 11
21.4000000000000092
 21
28.6195772789478191
 31
0.0
  0
LINE
  5
115
100
AcDbEntity
100
AcDbLine
  8
BLACK
 62
256
370
-1
 48
1.0
  6
ByLayer
 10
21.4000000000000092
 20
28.6195772789478191
 30
0.0
 11
21.4000000000000092
 21
29.2195772789478383
 31
0.0
  0
LINE
  5
116
100
AcDbEntity
100
AcDbLine
  8
BLACK
 62
256
370
-1
 48
1.0
  6
ByLayer
 10
21.4000000000000092
 20
29.2195772789478383
 30
0.0
 11
21.5
 21
28.4195772789478305
 31
0.0
  0
LINE
  5
117
100
AcDbEntity
100
AcDbLine
  8
BLACK
 62
256
370
-1
 48
1.0
  6
ByLayer
 10
21.5
 20
28.4195772789478305
 30
0.0
 11
21.6999999999999886
 21
27.9195772789478305
 31
0.0
  0
LINE
  5
118
100
AcDbEntity
100
AcDbLine
  8
BLACK
 62
256
370
-1
 48
1.0
  6
ByLayer
 10
21.6999999999999886
 20
27.9195772789478305
 30
0.0
 11
21.2999999999999794
 21
27.9195772789478305
 31
0.0
  0
LINE
  5
119
100
AcDbEntity
100
AcDbLine
  8
BLACK
 62
256
370
-1
 48
1.0
  6
ByLayer
 10
21.2999999999999794
 20
27.9195772789478305
 30
0.0
 11
21.2999999999999794
 21
27.5195772789478212
 31
0.0
  0
LINE
  5
11A
100
AcDbEntity
100
AcDbLine
  8
BLACK
 62
256
370
-1
 48
1.0
  6
ByLayer
 10
21.2999999999999794
 20
27.5195772789478212
 30
0.0
 11
20.9000000000000092
 21
27.6195772789478191
 31
0.0
  0
LINE
  5
11B
100
AcDbEntity
100
AcDbLine
  8
BLACK
 62
256
370
-1
 48
1.0
  6
ByLayer
 10
20.9000000000000092
 20
27.6195772789478191
 30
0.0
 11
20.6999999999999886
 21
27.9195772789478305
 31
0.0
  0
LINE
  5
11C
100
AcDbEntity
100
AcDbLine
  8
BLACK
 62
256
370
-1
 48
1.0
  6
ByLayer
 10
20.6999999999999886
 20
27.9195772789478305
 30
0.0
 11
20.2999999999999794
 21
28.0195772789478212
 31
0.0
  0
LINE
  5
11D
100
AcDbEntity
100
AcDbLine
  8
BLACK
 62
256
370
-1
 48
1.0
  6
ByLayer
 10
20.2999999999999794
 20
28.0195772789478212
 30
0.0
 11
20.2999999999999794
 21
28.4195772789478305
 31
0.0
  0
LINE
  5
11E
100
AcDbEntity
100
AcDbLine
  8
BLACK
 62
256
370
-1
 48
1.0
  6
ByLayer
 10
20.2999999999999794
 20
28.4195772789478305
 30
0.0
 11
20.5
 21
28.6195772789478191
 31
0.0
  0
LINE
  5
11F
100
AcDbEntity
100
AcDbLine
  8
BLACK
 62
256
370
-1
 48
1.0
  6
ByLayer
 10
20.5
 20
28.6195772789478191
 30
0.0
 11
20.1999999999999886
 21
28.5195772789478212
 31
0.0
  0
LINE
  5
120
100
AcDbEntity
100
AcDbLine
  8
BLACK
 62
256
370
-1
 48
1.0
  6
ByLayer
 10
20.1999999999999886
 20
28.5195772789478212
 30
0.0
 11
20.0
 21
28.6195772789478191
 31
0.0
  0
LINE
  5
121
100
AcDbEntity
100
AcDbLine
  8
BLACK
 62
256
370
-1
 48
1.0
  6
ByLayer
 10
20.0
 20
28.6195772789478191
 30
0.0
 11
19.9000000000000092
 21
28.7195772789478383
 31
0.0
  0
LINE
  5
122
100
AcDbEntity
100
AcDbLine
  8
BLACK
 62
256
370
-1
 48
1.0
  6
ByLayer
 10
19.9000000000000092
 20
28.7195772789478383
 30
0.0
 11
20.0999999999999908
 21
28.9195772789478305
 31
0.0
  0
LINE
  5
123
100
AcDbEntity
100
AcDbLine
  8
BLACK
 62
256
370
-1
 48
1.0
  6
ByLayer
 10
20.0999999999999908
 20
28.9195772789478305
 30
0.0
 11
19.7999999999999794
 21
28.9195772789478305
 31
0.0
  0
LINE
  5
124
100
AcDbEntity
100
AcDbLine
  8
BLACK
 62
256
370
-1
 48
1.0
  6
ByLayer
 10
19.7999999999999794
 20
28.9195772789478305
 30
0.0
 11
19.6999999999999886
 21
29.1195772789478191
 31
0.0
  0
LINE
  5
125
100
AcDbEntity
100
AcDbLine
  8
BLACK
 62
256
370
-1
 48
1.0
  6
ByLayer
 10
19.6999999999999886
 20
29.1195772789478191
 30
0.0
 11
19.5
 21
29.3195772789478291
 31
0.0
  0
LINE
  5
126
100
AcDbEntity
100
AcDbLine
  8
BLACK
 62
256
370
-1
 48
1.0
  6
ByLayer
 10
19.5
 20
29.3195772789478291
 30
0.0
 11
19.2999999999999794
 21
29.3195772789478291
 31
0.0
  0
LINE
  5
127
100
AcDbEntity
100
AcDbLine
  8
BLACK
 62
256
370
-1
 48
1.0
  6
ByLayer
 10
19.2999999999999794
 20
29.3195772789478291
 30
0.0
 11
19.2999999999999794
 21
29.5195772789478212
 31
0.0
  0
LINE
  5
128
100
AcDbEntity
100
AcDbLine
  8
BLACK
 62
256
370
-1
 48
1.0
  6
ByLayer
 10
19.2999999999999794
 20
29.5195772789478212
 30
0.0
 11
19.0999999999999908
 21
29.5195772789478212
 31
0.0
  0
LINE
  5
129
100
AcDbEntity
100
AcDbLine
  8
BLACK
 62
256
370
-1
 48
1.0
  6
ByLayer
 10
19.0999999999999908
 20
29.5195772789478212
 30
0.0
 11
19.1999999999999886
 21
28.7195772789478383
 31
0.0
  0
LINE
  5
12A
100
AcDbEntity
100
AcDbLine
  8
BLACK
 62
256
370
-1
 48
1.0
  6
ByLayer
 10
19.1999999999999886
 20
28.7195772789478383
 30
0.0
 11
19.0
 21
28.6195772789478191
 31
0.0
  0
LINE
  5
12B
100
AcDbEntity
100
AcDbLine
  8
BLACK
 62
256
370
-1
 48
1.0
  6
ByLayer
 10
19.0
 20
28.6195772789478191
 30
0.0
 11
18.7999999999999794
 21
28.5195772789478212
 31
0.0
  0
LINE
  5
12C
100
AcDbEntity
100
AcDbLine
  8
BLACK
 62
256
370
-1
 48
1.0
  6
ByLayer
 10
18.7999999999999794
 20
28.5195772789478212
 30
0.0
 11
18.5999999999999908
 21
28.7195772789478383
 31
0.0
  0
LINE
  5
12D
100
AcDbEntity
100
AcDbLine
  8
BLACK
 62
256
370
-1
 48
1.0
  6
ByLayer
 10
18.5999999999999908
 20
28.7195772789478383
 30
0.0
 11
18.5
 21
28.9195772789478305
 31
0.0
  0
LINE
  5
12E
100
AcDbEntity
100
AcDbLine
  8
BLACK
 62
256
370
-1
 48
1.0
  6
ByLayer
 10
18.5
 20
28.9195772789478305
 30
0.0
 11
18.5
 21
28.9195772789478305
 31
0.0
  0
LINE
  5
12F
100
AcDbEntity
100
AcDbLine
  8
BLACK
 62
256
370
-1
 48
1.0
  6
ByLayer
 10
18.5
 20
28.9195772789478305
 30
0.0
 11
18.4000000000000092
 21
29.2195772789478383
 31
0.0
  0
LINE
  5
130
100
AcDbEntity
100
AcDbLine
  8
BLACK
 62
256
370
-1
 48
1.0
  6
ByLayer
 10
18.4000000000000092
 20
29.2195772789478383
 30
0.0
 11
18.4000000000000092
 21
29.5195772789478212
 31
0.0
  0
LINE
  5
131
100
AcDbEntity
100
AcDbLine
  8
BLACK
 62
256
370
-1
 48
1.0
  6
ByLayer
 10
18.4000000000000092
 20
29.5195772789478212
 30
0.0
 11
18.0999999999999908
 21
29.3195772789478291
 31
0.0
  0
LINE
  5
132
100
AcDbEntity
100
AcDbLine
  8
BLACK
 62
256
370
-1
 48
1.0
  6
ByLayer
 10
18.0999999999999908
 20
29.3195772789478291
 30
0.0
 11
18.1999999999999886
 21
29.0195772789478212
 31
0.0
  0
LINE
  5
133
100
AcDbEntity
100
AcDbLine
  8
BLACK
 62
256
370
-1
 48
1.0
  6
ByLayer
 10
18.1999999999999886
 20
29.0195772789478212
 30
0.0
 11
18.2999999999999794
 21
28.7195772789478383
 31
0.0
  0
LINE
  5
134
100
AcDbEntity
100
AcDbLine
  8
BLACK
 62
256
370
-1
 48
1.0
  6
ByLayer
 10
18.2999999999999794
 20
28.7195772789478383
 30
0.0
 11
17.9000000000000092
 21
28.5195772789478212
 31
0.0
  0
LINE
  5
135
100
AcDbEntity
100
AcDbLine
  8
BLACK
 62
256
370
-1
 48
1.0
  6
ByLayer
 10
17.9000000000000092
 20
28.5195772789478212
 30
0.0
 11
17.5
 21
28.4195772789478305
 31
0.0
  0
LINE
  5
136
100
AcDbEntity
100
AcDbLine
  8
BLACK
 62
256
370
-1
 48
1.0
  6
ByLayer
 10
17.5
 20
28.4195772789478305
 30
0.0
 11
17.1999999999999886
 21
28.4195772789478305
 31
0.0
  0
LINE
  5
137
100
AcDbEntity
100
AcDbLine
  8
BLACK
 62
256
370
-1
 48
1.0
  6
ByLayer
 10
17.1999999999999886
 20
28.4195772789478305
 30
0.0
 11
17.2999999999999794
 21
28.6195772789478191
 31
0.0
  0
LINE
  5
138
100
AcDbEntity
100
AcDbLine
  8
BLACK
 62
256
370
-1
 48
1.0
  6
ByLayer
 10
17.2999999999999794
 20
28.6195772789478191
 30
0.0
 11
17.5
 21
28.7195772789478383
 31
0.0
  0
LINE
  5
139
100
AcDbEntity
100
AcDbLine
  8
BLACK
 62
256
370
-1
 48
1.0
  6
ByLayer
 10
17.5
 20
28.7195772789478383
 30
0.0
 11
17.5
 21
28.8195772789478291
 31
0.0
  0
LINE
  5
13A
100
AcDbEntity
100
AcDbLine
  8
BLACK
 62
256
370
-1
 48
1.0
  6
ByLayer
 10
17.5
 20
28.8195772789478291
 30
0.0
 11
17.0999999999999908
 21
28.8195772789478291
 31
0.0
  0
LINE
  5
13B
100
AcDbEntity
100
AcDbLine
  8
BLACK
 62
256
370
-1
 48
1.0
  6
ByLayer
 10
17.0999999999999908
 20
28.8195772789478291
 30
0.0
 11
16.7999999999999794
 21
28.6195772789478191
 31
0.0
  0
LINE
  5
13C
100
AcDbEntity
100
AcDbLine
  8
BLACK
 62
256
370
-1
 48
1.0
  6
ByLayer
 10
16.7999999999999794
 20
28.6195772789478191
 30
0.0
 11
16.5999999999999908
 21
28.5195772789478212
 31
0.0
  0
LINE
  5
13D
100
AcDbEntity
100
AcDbLine
  8
BLACK
 62
256
370
-1
 48
1.0
  6
ByLayer
 10
16.5999999999999908
 20
28.5195772789478212
 30
0.0
 11
16.1999999999999886
 21
28.6195772789478191
 31
0.0
  0
LINE
  5
13E
100
AcDbEntity
100
AcDbLine
  8
BLACK
 62
256
370
-1
 48
1.0
  6
ByLayer
 10
16.1999999999999886
 20
28.6195772789478191
 30
0.0
 11
15.9000000000000092
 21
28.9195772789478305
 31
0.0
  0
LINE
  5
13F
100
AcDbEntity
100
AcDbLine
  8
BLACK
 62
256
370
-1
 48
1.0
  6
ByLayer
 10
15.9000000000000092
 20
28.9195772789478305
 30
0.0
 11
15.5999999999999908
 21
28.8195772789478291
 31
0.0
  0
LINE
  5
140
100
AcDbEntity
100
AcDbLine
  8
BLACK
 62
256
370
-1
 48
1.0
  6
ByLayer
 10
15.5999999999999908
 20
28.8195772789478291
 30
0.0
 11
15.5999999999999908
 21
29.0195772789478212
 31
0.0
  0
LINE
  5
141
100
AcDbEntity
100
AcDbLine
  8
BLACK
 62
256
370
-1
 48
1.0
  6
ByLayer
 10
15.5999999999999908
 20
29.0195772789478212
 30
0.0
 11
15.9000000000000092
 21
29.1195772789478191
 31
0.0
  0
LINE
  5
142
100
AcDbEntity
100
AcDbLine
  8
BLACK
 62
256
370
-1
 48
1.0
  6
ByLayer
 10
15.9000000000000092
 20
29.1195772789478191
 30
0.0
 11
15.6999999999999904
 21
29.3195772789478291
 31
0.0
  0
LINE
  5
143
100
AcDbEntity
100
AcDbLine
  8
BLACK
 62
256
370
-1
 48
1.0
  6
ByLayer
 10
15.6999999999999904
 20
29.3195772789478291
 30
0.0
 11
15.6999999999999904
 21
29.5195772789478212
 31
0.0
  0
LINE
  5
144
100
AcDbEntity
100
AcDbLine
  8
BLACK
 62
256
370
-1
 48
1.0
  6
ByLayer
 10
15.6999999999999904
 20
29.5195772789478212
 30
0.0
 11
16.0999999999999908
 21
30.2195772789478383
 31
0.0
  0
LINE
  5
145
100
AcDbEntity
100
AcDbLine
  8
BLACK
 62
256
370
-1
 48
1.0
  6
ByLayer
 10
16.0999999999999908
 20
30.2195772789478383
 30
0.0
 11
16.4000000000000092
 21
30.2195772789478383
 31
0.0
  0
LINE
  5
146
100
AcDbEntity
100
AcDbLine
  8
BLACK
 62
256
370
-1
 48
1.0
  6
ByLayer
 10
16.4000000000000092
 20
30.2195772789478383
 30
0.0
 11
16.6999999999999886
 21
29.9195772789478305
 31
0.0
  0
LINE
  5
147
100
AcDbEntity
100
AcDbLine
  8
BLACK
 62
256
370
-1
 48
1.0
  6
ByLayer
 10
16.6999999999999886
 20
29.9195772789478305
 30
0.0
 11
16.9000000000000092
 21
29.7195772789478383
 31
0.0
  0
LINE
  5
148
100
AcDbEntity
100
AcDbLine
  8
BLACK
 62
256
370
-1
 48
1.0
  6
ByLayer
 10
16.9000000000000092
 20
29.7195772789478383
 30
0.0
 11
16.4000000000000092
 21
29.6195772789478191
 31
0.0
  0
LINE
  5
149
100
AcDbEntity
100
AcDbLine
  8
BLACK
 62
256
370
-1
 48
1.0
  6
ByLayer
 10
16.4000000000000092
 20
29.6195772789478191
 30
0.0
 11
16.4000000000000092
 21
29.3195772789478291
 31
0.0
  0
LINE
  5
14A
100
AcDbEntity
100
AcDbLine
  8
BLACK
 62
256
370
-1
 48
1.0
  6
ByLayer
 10
16.4000000000000092
 20
29.3195772789478291
 30
0.0
 11
16.0
 21
29.4195772789478305
 31
0.0
  0
LINE
  5
14B
100
AcDbEntity
100
AcDbLine
  8
BLACK
 62
256
370
-1
 48
1.0
  6
ByLayer
 10
16.0
 20
29.4195772789478305
 30
0.0
 11
15.7000000000000206
 21
29.3195772789478291
 31
0.0
  0
LINE
  5
14C
100
AcDbEntity
100
AcDbLine
  8
BLACK
 62
256
370
-1
 48
1.0
  6
ByLayer
 10
16.4000000000000092
 20
29.6195772789478191
 30
0.0
 11
16.5999999999999908
 21
29.4195772789478305
 31
0.0
  0
LINE
  5
14D
100
AcDbEntity
100
AcDbLine
  8
BLACK
 62
256
370
-1
 48
1.0
  6
ByLayer
 10
16.5999999999999908
 20
29.4195772789478305
 30
0.0
 11
16.7999999999999794
 21
29.2195772789478383
 31
0.0
  0
LINE
  5
14E
100
AcDbEntity
100
AcDbLine
  8
BLACK
 62
256
370
-1
 48
1.0
  6
ByLayer
 10
16.7999999999999794
 20
29.2195772789478383
 30
0.0
 11
17.5
 21
29.5195772789478212
 31
0.0
  0
LINE
  5
14F
100
AcDbEntity
100
AcDbLine
  8
BLACK
 62
256
370
-1
 48
1.0
  6
ByLayer
 10
17.5
 20
29.5195772789478212
 30
0.0
 11
17.7570845728764901
 21
29.6850712760757709
 31
0.0
  0
LINE
  5
150
100
AcDbEntity
100
AcDbLine
  8
BLACK
 62
256
370
-1
 48
1.0
  6
ByLayer
 10
17.7570845728764901
 20
29.6850712760757709
 30
0.0
 11
17.8236791147092504
 21
30.2577843358375311
 31
0.0
  0
LINE
  5
151
100
AcDbEntity
100
AcDbLine
  8
BLACK
 62
256
370
-1
 48
1.0
  6
ByLayer
 10
17.8236791147092504
 20
30.2577843358375311
 30
0.0
 11
18.0900572820403092
 21
30.6040759533679001
 31
0.0
  0
LINE
  5
152
100
AcDbEntity
100
AcDbLine
  8
BLACK
 62
256
370
-1
 48
1.0
  6
ByLayer
 10
18.0900572820403092
 20
30.6040759533679001
 30
0.0
 11
18.4097110828375605
 21
30.8571352123323912
 31
0.0
  0
LINE
  5
153
100
AcDbEntity
100
AcDbLine
  8
BLACK
 62
256
370
-1
 48
1.0
  6
ByLayer
 10
18.4097110828375605
 20
30.8571352123323912
 30
0.0
 11
18.3999999999999808
 21
31.2195772789478383
 31
0.0
  0
LINE
  5
154
100
AcDbEntity
100
AcDbLine
  8
BLACK
 62
256
370
-1
 48
1.0
  6
ByLayer
 10
18.3999999999999808
 20
31.2195772789478383
 30
0.0
 11
18.4896245330368707
 21
31.496442813926901
 31
0.0
  0
LINE
  5
155
100
AcDbEntity
100
AcDbLine
  8
BLACK
 62
256
370
-1
 48
1.0
  6
ByLayer
 10
18.4896245330368707
 20
31.496442813926901
 30
0.0
 11
18.1033761904068591
 21
31.5630373557596613
 31
0.0
  0
LINE
  5
156
100
AcDbEntity
100
AcDbLine
  8
BLACK
 62
256
370
-1
 48
1.0
  6
ByLayer
 10
18.6925603001818388
 20
32.8747278480591092
 30
0.0
 11
18.6760892501686193
 21
32.4820420330517834
 31
0.0
  0
LINE
  5
157
100
AcDbEntity
100
AcDbLine
  8
BLACK
 62
256
370
-1
 48
1.0
  6
ByLayer
 10
18.6760892501686193
 20
32.4820420330517834
 30
0.0
 11
19.0889754095317414
 21
32.2822584075535133
 31
0.0
  0
LINE
  5
158
100
AcDbEntity
100
AcDbLine
  8
BLACK
 62
256
370
-1
 48
1.0
  6
ByLayer
 10
19.0889754095317414
 20
32.2822584075535133
 30
0.0
 11
19.2621212182969295
 21
31.7761398896245204
 31
0.0
  0
LINE
  5
159
100
AcDbEntity
100
AcDbLine
  8
BLACK
 62
256
370
-1
 48
1.0
  6
ByLayer
 10
19.2621212182969295
 20
31.7761398896245204
 30
0.0
 11
19.5684561107276487
 21
31.84273443145727
 31
0.0
  0
LINE
  5
15A
100
AcDbEntity
100
AcDbLine
  8
BLACK
 62
256
370
-1
 48
1.0
  6
ByLayer
 10
19.7682397362259188
 20
31.6962264394251996
 30
0.0
 11
19.5551372023610988
 21
31.4831239055603511
 31
0.0
  0
LINE
  5
15B
100
AcDbEntity
100
AcDbLine
  8
BLACK
 62
256
370
-1
 48
1.0
  6
ByLayer
 10
19.5551372023610988
 20
31.4831239055603511
 30
0.0
 11
19.5551372023610988
 21
31.2966591884286096
 31
0.0
  0
LINE
  5
15C
100
AcDbEntity
100
AcDbLine
  8
BLACK
 62
256
370
-1
 48
1.0
  6
ByLayer
 10
19.5551372023610988
 20
31.2966591884286096
 30
0.0
 11
19.7948775529590399
 21
31.2300646465958494
 31
0.0
  0
LINE
  5
15D
100
AcDbEntity
100
AcDbLine
  8
BLACK
 62
256
370
-1
 48
1.0
  6
ByLayer
 10
19.7948775529590399
 20
31.2300646465958494
 30
0.0
 11
20.0212989951904206
 21
31.4165293637275909
 31
0.0
  0
LINE
  5
15E
100
AcDbEntity
100
AcDbLine
  8
BLACK
 62
256
370
-1
 48
1.0
  6
ByLayer
 10
20.0212989951904206
 20
31.4165293637275909
 30
0.0
 11
20.3999999999999808
 21
31.2195772789478383
 31
0.0
  0
LINE
  5
15F
100
AcDbEntity
100
AcDbLine
  8
BLACK
 62
256
370
-1
 48
1.0
  6
ByLayer
 10
20.3999999999999808
 20
31.2195772789478383
 30
0.0
 11
20.8337524055501113
 21
30.9903242959979117
 31
0.0
  0
LINE
  5
160
100
AcDbEntity
100
AcDbLine
  8
BLACK
 62
256
370
-1
 48
1.0
  6
ByLayer
 10
20.8337524055501113
 20
30.9903242959979117
 30
0.0
 11
21.1933629314470409
 21
31.0702377461972183
 31
0.0
  0
LINE
  5
161
100
AcDbEntity
100
AcDbLine
  8
BLACK
 62
256
370
-1
 48
1.0
  6
ByLayer
 10
21.1933629314470409
 20
31.0702377461972183
 30
0.0
 11
21.5263356406108493
 21
31.1634701047630891
 31
0.0
  0
LINE
  5
162
100
AcDbEntity
100
AcDbLine
  8
BLACK
 62
256
370
-1
 48
1.0
  6
ByLayer
 10
21.5263356406108493
 20
31.1634701047630891
 30
0.0
 11
21.8459894414081113
 21
31.3632537302613912
 31
0.0
  0
LINE
  5
163
100
AcDbEntity
100
AcDbLine
  8
BLACK
 62
256
370
-1
 48
1.0
  6
ByLayer
 10
21.8459894414081113
 20
31.3632537302613912
 30
0.0
 11
22.1656432422053591
 21
31.3232970051617201
 31
0.0
  0
LINE
  5
164
100
AcDbEntity
100
AcDbLine
  8
BLACK
 62
256
370
-1
 48
1.0
  6
ByLayer
 10
22.1656432422053591
 20
31.3232970051617201
 30
0.0
 11
22.3999999999999808
 21
31.2195772789478383
 31
0.0
  0
LINE
  5
165
100
AcDbEntity
100
AcDbLine
  8
BLACK
 62
256
370
-1
 48
1.0
  6
ByLayer
 10
22.3999999999999808
 20
31.2195772789478383
 30
0.0
 11
22.4453403179029713
 21
30.9903242959979117
 31
0.0
  0
LINE
  5
166
100
AcDbEntity
100
AcDbLine
  8
BLACK
 62
256
370
-1
 48
1.0
  6
ByLayer
 10
22.4453403179029713
 20
30.9903242959979117
 30
0.0
 11
22.1390054254722806
 21
30.9903242959979117
 31
0.0
  0
LINE
  5
167
100
AcDbEntity
100
AcDbLine
  8
BLACK
 62
256
370
-1
 48
1.0
  6
ByLayer
 10
22.1390054254722806
 20
30.9903242959979117
 30
0.0
 11
21.8459894414081397
 21
31.3632537302613912
 31
0.0
  0
LINE
  5
168
100
AcDbEntity
100
AcDbLine
  8
BLACK
 62
256
370
-1
 48
1.0
  6
ByLayer
 10
22.498615951369171
 20
31.4298482720941514
 30
0.0
 11
21.9259028916074215
 21
31.9492856983897013
 31
0.0
  0
LINE
  5
169
100
AcDbEntity
100
AcDbLine
  8
BLACK
 62
256
370
-1
 48
1.0
  6
ByLayer
 10
21.9259028916074215
 20
31.9492856983897013
 30
0.0
 11
21.6462058159098412
 21
31.9492856983897013
 31
0.0
  0
LINE
  5
16A
100
AcDbEntity
100
AcDbLine
  8
BLACK
 62
256
370
-1
 48
1.0
  6
ByLayer
 10
21.6462058159098412
 20
31.9492856983897013
 30
0.0
 11
21.2599574732798011
 21
31.6029940808593288
 31
0.0
  0
LINE
  5
16B
100
AcDbEntity
100
AcDbLine
  8
BLACK
 62
256
370
-1
 48
1.0
  6
ByLayer
 10
21.2599574732798011
 20
31.6029940808593288
 30
0.0
 11
20.7538389553508011
 21
31.5896751724927789
 31
0.0
  0
LINE
  5
16C
100
AcDbEntity
100
AcDbLine
  8
BLACK
 62
256
370
-1
 48
1.0
  6
ByLayer
 10
20.7538389553508011
 20
31.5896751724927789
 30
0.0
 11
20.4208662461869892
 21
31.6962264394251996
 31
0.0
  0
LINE
  5
16D
100
AcDbEntity
100
AcDbLine
  8
BLACK
 62
256
370
-1
 48
1.0
  6
ByLayer
 10
20.4208662461869892
 20
31.6962264394251996
 30
0.0
 11
20.0612557202900916
 21
31.84273443145727
 31
0.0
  0
LINE
  5
16E
100
AcDbEntity
100
AcDbLine
  8
BLACK
 62
256
370
-1
 48
1.0
  6
ByLayer
 10
20.0612557202900916
 20
31.84273443145727
 30
0.0
 11
20.0479368119235311
 21
32.1623882322545285
 31
0.0
  0
LINE
  5
16F
100
AcDbEntity
100
AcDbLine
  8
BLACK
 62
256
370
-1
 48
1.0
  6
ByLayer
 10
20.3999999999999808
 20
32.2195772789478383
 30
0.0
 11
20.2743582541549188
 21
32.4154474912190267
 31
0.0
  0
LINE
  5
170
100
AcDbEntity
100
AcDbLine
  8
BLACK
 62
256
370
-1
 48
1.0
  6
ByLayer
 10
20.2743582541549188
 20
32.4154474912190267
 30
0.0
 11
20.5806931465856202
 21
32.5486365748845401
 31
0.0
  0
LINE
  5
171
100
AcDbEntity
100
AcDbLine
  8
BLACK
 62
256
370
-1
 48
1.0
  6
ByLayer
 10
20.5806931465856202
 20
32.5486365748845401
 30
0.0
 11
20.7005633218846015
 21
32.4021285828524697
 31
0.0
  0
LINE
  5
172
100
AcDbEntity
100
AcDbLine
  8
BLACK
 62
256
370
-1
 48
1.0
  6
ByLayer
 10
20.5806931465856202
 20
32.5486365748844833
 30
0.0
 11
20.3542717043542289
 21
32.7883769254824813
 31
0.0
  0
LINE
  5
173
100
AcDbEntity
100
AcDbLine
  8
BLACK
 62
256
370
-1
 48
1.0
  6
ByLayer
 10
20.3542717043542289
 20
32.7883769254824813
 30
0.0
 11
20.3542717043542289
 21
33.0147983677138868
 31
0.0
  0
LINE
  5
174
100
AcDbEntity
100
AcDbLine
  8
BLACK
 62
256
370
-1
 48
1.0
  6
ByLayer
 10
20.6872444135180409
 20
31.9626046067562299
 30
0.0
 11
20.7538389553508011
 21
32.015880240222458
 31
0.0
  0
LINE
  5
175
100
AcDbEntity
100
AcDbLine
  8
BLACK
 62
256
370
-1
 48
1.0
  6
ByLayer
 10
19.4885426605284202
 20
33.7207005111412172
 30
0.0
 11
19.9680233617243097
 21
33.7207005111412172
 31
0.0
  0
LINE
  5
176
100
AcDbEntity
100
AcDbLine
  8
BLACK
 62
256
370
-1
 48
1.0
  6
ByLayer
 10
19.9680233617243097
 20
33.7207005111412172
 30
0.0
 11
20.3143149792546787
 21
33.467641252176719
 31
0.0
  0
LINE
  5
177
100
AcDbEntity
100
AcDbLine
  8
BLACK
 62
256
370
-1
 48
1.0
  6
ByLayer
 10
20.3143149792546787
 20
33.467641252176719
 30
0.0
 11
20.2477204374219184
 21
33.2545387183118635
 31
0.0
  0
LINE
  5
178
100
AcDbEntity
100
AcDbLine
  8
BLACK
 62
256
370
-1
 48
1.0
  6
ByLayer
 10
20.2477204374219184
 20
33.2545387183118635
 30
0.0
 11
19.3999999999999808
 21
33.2195772789478383
 31
0.0
  0
LINE
  5
179
100
AcDbEntity
100
AcDbLine
  8
BLACK
 62
256
370
-1
 48
1.0
  6
ByLayer
 10
19.3999999999999808
 20
33.2195772789478383
 30
0.0
 11
19.7149641027598115
 21
33.0547550928135934
 31
0.0
  0
LINE
  5
17A
100
AcDbEntity
100
AcDbLine
  8
BLACK
 62
256
370
-1
 48
1.0
  6
ByLayer
 10
19.7149641027598115
 20
33.0547550928135934
 30
0.0
 11
20.0079800868239808
 21
33.0414361844470434
 31
0.0
  0
LINE
  5
17B
100
AcDbEntity
100
AcDbLine
  8
BLACK
 62
256
370
-1
 48
1.0
  6
ByLayer
 10
20.0079800868239808
 20
33.0414361844470434
 30
0.0
 11
20.1411691704894906
 21
33.1746252681125497
 31
0.0
  0
LINE
  5
17C
100
AcDbEntity
100
AcDbLine
  8
BLACK
 62
256
370
-1
 48
1.0
  6
ByLayer
 10
22.2721945091379006
 20
33.8672085031732877
 30
0.0
 11
21.699481449376151
 21
33.4809601605432832
 31
0.0
  0
LINE
  5
17D
100
AcDbEntity
100
AcDbLine
  8
BLACK
 62
256
370
-1
 48
1.0
  6
ByLayer
 10
21.699481449376151
 20
33.4809601605432832
 30
0.0
 11
21.1667251147140405
 21
33.3211332601446486
 31
0.0
  0
LINE
  5
17E
100
AcDbEntity
100
AcDbLine
  8
BLACK
 62
256
370
-1
 48
1.0
  6
ByLayer
 10
21.1667251147140405
 20
33.3211332601446486
 30
0.0
 11
21.6994814493762611
 21
33.4809601605432974
 31
0.0
  0
LINE
  5
17F
100
AcDbEntity
100
AcDbLine
  8
BLACK
 62
256
370
-1
 48
1.0
  6
ByLayer
 10
21.6994814493762611
 20
33.4809601605432974
 30
0.0
 11
22.2322377840382295
 21
33.3344521685111772
 31
0.0
  0
LINE
  5
180
100
AcDbEntity
100
AcDbLine
  8
BLACK
 62
256
370
-1
 48
1.0
  6
ByLayer
 10
22.2322377840382295
 20
33.3344521685111772
 30
0.0
 11
22.6451239434013587
 21
33.5608736107425898
 31
0.0
  0
LINE
  5
181
100
AcDbEntity
100
AcDbLine
  8
BLACK
 62
256
370
-1
 48
1.0
  6
ByLayer
 10
22.6451239434013587
 20
33.5608736107425898
 30
0.0
 11
22.5385726764689593
 21
33.2811765350449775
 31
0.0
  0
LINE
  5
182
100
AcDbEntity
100
AcDbLine
  8
BLACK
 62
256
370
-1
 48
1.0
  6
ByLayer
 10
22.5385726764689593
 20
33.2811765350449775
 30
0.0
 11
22.2322377840382295
 21
33.3344521685111772
 31
0.0
  0
LINE
  5
183
100
AcDbEntity
100
AcDbLine
  8
BLACK
 62
256
370
-1
 48
1.0
  6
ByLayer
 10
22.2322377840382295
 20
33.3344521685111772
 30
0.0
 11
22.1256865171058301
 21
32.9615227342477226
 31
0.0
  0
LINE
  5
184
100
AcDbEntity
100
AcDbLine
  8
BLACK
 62
256
370
-1
 48
1.0
  6
ByLayer
 10
22.1256865171058301
 20
32.9615227342477226
 30
0.0
 11
21.7927138079420217
 21
33.0414361844470434
 31
0.0
  0
LINE
  5
185
100
AcDbEntity
100
AcDbLine
  8
BLACK
 62
256
370
-1
 48
1.0
  6
ByLayer
 10
21.7927138079420217
 20
33.0414361844470434
 30
0.0
 11
21.6062490908102802
 21
33.081392909546679
 31
0.0
  0
LINE
  5
186
100
AcDbEntity
100
AcDbLine
  8
BLACK
 62
256
370
-1
 48
1.0
  6
ByLayer
 10
21.6062490908102802
 20
33.081392909546679
 30
0.0
 11
21.7527570828423507
 21
32.7351012920163384
 31
0.0
  0
LINE
  5
187
100
AcDbEntity
100
AcDbLine
  8
BLACK
 62
256
370
-1
 48
1.0
  6
ByLayer
 10
21.7527570828423507
 20
32.7351012920163384
 30
0.0
 11
21.366508740212339
 21
33.0281172760804793
 31
0.0
  0
LINE
  5
188
100
AcDbEntity
100
AcDbLine
  8
BLACK
 62
256
370
-1
 48
1.0
  6
ByLayer
 10
21.366508740212339
 20
33.0281172760804793
 30
0.0
 11
21.1667251147140405
 21
33.3211332601446486
 31
0.0
  0
LINE
  5
189
100
AcDbEntity
100
AcDbLine
  8
BLACK
 62
256
370
-1
 48
1.0
  6
ByLayer
 10
19.9080882740747107
 20
31.3232970051617201
 30
0.0
 11
20.0346179035571197
 21
30.9636864792649114
 31
0.0
  0
LINE
  5
18A
100
AcDbEntity
100
AcDbLine
  8
BLACK
 62
256
370
-1
 48
1.0
  6
ByLayer
 10
20.0346179035571197
 20
30.9636864792649114
 30
0.0
 11
20.3143149792547
 21
30.6173948617345388
 31
0.0
  0
LINE
  5
18B
100
AcDbEntity
100
AcDbLine
  8
BLACK
 62
256
370
-1
 48
1.0
  6
ByLayer
 10
20.3143149792547
 20
30.6173948617345388
 30
0.0
 11
20.6739255051516295
 21
30.4309301446028009
 31
0.0
  0
LINE
  5
18C
100
AcDbEntity
100
AcDbLine
  8
BLACK
 62
256
370
-1
 48
1.0
  6
ByLayer
 10
20.6739255051516295
 20
30.4309301446028009
 30
0.0
 11
21.0734927561482017
 21
30.4975246864355505
 31
0.0
  0
LINE
  5
18D
100
AcDbEntity
100
AcDbLine
  8
BLACK
 62
256
370
-1
 48
1.0
  6
ByLayer
 10
21.0734927561482017
 20
30.4975246864355505
 30
0.0
 11
21.4597410987782418
 21
30.7905406704997198
 31
0.0
  0
LINE
  5
18E
100
AcDbEntity
100
AcDbLine
  8
BLACK
 62
256
370
-1
 48
1.0
  6
ByLayer
 10
21.4597410987782418
 20
30.7905406704997198
 30
0.0
 11
21.2333196565468292
 21
30.2311465191044988
 31
0.0
  0
LINE
  5
18F
100
AcDbEntity
100
AcDbLine
  8
BLACK
 62
256
370
-1
 48
1.0
  6
ByLayer
 10
21.2333196565468292
 20
30.2311465191044988
 30
0.0
 11
20.8470713139168105
 21
30.2577843358376093
 31
0.0
  0
LINE
  5
190
100
AcDbEntity
100
AcDbLine
  8
BLACK
 62
256
370
-1
 48
1.0
  6
ByLayer
 10
20.8470713139168105
 20
30.2577843358376093
 30
0.0
 11
20.3999999999999808
 21
30.2195772789478383
 31
0.0
  0
LINE
  5
191
100
AcDbEntity
100
AcDbLine
  8
BLACK
 62
256
370
-1
 48
1.0
  6
ByLayer
 10
20.3999999999999808
 20
30.2195772789478383
 30
0.0
 11
20.1145313537564299
 21
30.4708868697024684
 31
0.0
  0
LINE
  5
192
100
AcDbEntity
100
AcDbLine
  8
BLACK
 62
256
370
-1
 48
1.0
  6
ByLayer
 10
20.1145313537564299
 20
30.4708868697024684
 30
0.0
 11
20.3143149792546502
 21
30.6173948617345708
 31
0.0
  0
LINE
  5
193
100
AcDbEntity
100
AcDbLine
  8
BLACK
 62
256
370
-1
 48
1.0
  6
ByLayer
 10
20.3143149792546502
 20
30.6173948617345708
 30
0.0
 11
19.7815586445926215
 21
30.2311465191044988
 31
0.0
  0
LINE
  5
194
100
AcDbEntity
100
AcDbLine
  8
BLACK
 62
256
370
-1
 48
1.0
  6
ByLayer
 10
19.7815586445926215
 20
30.2311465191044988
 30
0.0
 11
19.754920827859511
 21
29.9248116266738009
 31
0.0
  0
LINE
  5
195
100
AcDbEntity
100
AcDbLine
  8
BLACK
 62
256
370
-1
 48
1.0
  6
ByLayer
 10
19.754920827859511
 20
29.9248116266738009
 30
0.0
 11
19.7815586445925895
 21
30.2311465191045308
 31
0.0
  0
LINE
  5
196
100
AcDbEntity
100
AcDbLine
  8
BLACK
 62
256
370
-1
 48
1.0
  6
ByLayer
 10
19.7815586445925895
 20
30.2311465191045308
 30
0.0
 11
19.3999999999999808
 21
30.2195772789478383
 31
0.0
  0
LINE
  5
197
100
AcDbEntity
100
AcDbLine
  8
BLACK
 62
256
370
-1
 48
1.0
  6
ByLayer
 10
19.3999999999999808
 20
30.2195772789478383
 30
0.0
 11
19.4086292103291385
 21
30.6173948617345388
 31
0.0
  0
LINE
  5
198
100
AcDbEntity
100
AcDbLine
  8
BLACK
 62
256
370
-1
 48
1.0
  6
ByLayer
 10
19.4086292103291385
 20
30.6173948617345388
 30
0.0
 11
18.5961757999694406
 21
30.1512330689051886
 31
0.0
  0
LINE
  5
199
100
AcDbEntity
100
AcDbLine
  8
BLACK
 62
256
370
-1
 48
1.0
  6
ByLayer
 10
18.5961757999694406
 20
30.1512330689051886
 30
0.0
 11
18.2898409075387214
 21
29.8981738099406904
 31
0.0
  0
LINE
  5
19A
100
AcDbEntity
100
AcDbLine
  8
BLACK
 62
256
370
-1
 48
1.0
  6
ByLayer
 10
18.2898409075387214
 20
29.8981738099406904
 30
0.0
 11
18.3999999999999808
 21
30.2195772789478383
 31
0.0
  0
LINE
  5
19B
100
AcDbEntity
100
AcDbLine
  8
BLACK
 62
256
370
-1
 48
1.0
  6
ByLayer
 10
18.3999999999999808
 20
30.2195772789478383
 30
0.0
 11
18.4896245330370199
 21
30.5641192282683107
 31
0.0
  0
LINE
  5
19C
100
AcDbEntity
100
AcDbLine
  8
BLACK
 62
256
370
-1
 48
1.0
  6
ByLayer
 10
18.4896245330370199
 20
30.5641192282683107
 30
0.0
 11
18.4097110828375889
 21
30.8571352123323912
 31
0.0
  0
LINE
  5
19D
100
AcDbEntity
100
AcDbLine
  8
BLACK
 62
256
370
-1
 48
1.0
  6
ByLayer
 10
18.4097110828375889
 20
30.8571352123323912
 30
0.0
 11
18.8891917840335886
 21
31.1368322880300887
 31
0.0
  0
LINE
  5
19E
100
AcDbEntity
100
AcDbLine
  8
BLACK
 62
256
370
-1
 48
1.0
  6
ByLayer
 10
18.8891917840335886
 20
31.1368322880300887
 30
0.0
 11
19.5551372023610988
 21
31.4831239055603795
 31
0.0
  0
LINE
  5
19F
100
AcDbEntity
100
AcDbLine
  8
BLACK
 62
256
370
-1
 48
1.0
  6
ByLayer
 10
19.5551372023610988
 20
31.4831239055603795
 30
0.0
 11
19.3420346684963818
 21
31.016962112731111
 31
0.0
  0
LINE
  5
1A0
100
AcDbEntity
100
AcDbLine
  8
BLACK
 62
256
370
-1
 48
1.0
  6
ByLayer
 10
19.3420346684963818
 20
31.016962112731111
 30
0.0
 11
19.0756565011653301
 21
30.8304973955993695
 31
0.0
  0
LINE
  5
1A1
100
AcDbEntity
100
AcDbLine
  8
BLACK
 62
256
370
-1
 48
1.0
  6
ByLayer
 10
19.0756565011653301
 20
30.8304973955993695
 30
0.0
 11
18.8891917840333008
 21
31.1368322880302593
 31
0.0
  0
LINE
  5
1A2
100
AcDbEntity
100
AcDbLine
  8
BLACK
 62
256
370
-1
 48
1.0
  6
ByLayer
 10
18.2898409075387214
 20
29.8981738099406016
 30
0.0
 11
17.8503169314425101
 21
29.4320120171113615
 31
0.0
  0
LINE
  5
1A3
100
AcDbEntity
100
AcDbLine
  8
BLACK
 62
256
370
-1
 48
1.0
  6
ByLayer
 10
17.8503169314425101
 20
29.4320120171113615
 30
0.0
 11
17.1499999999999808
 21
29.3695772789478191
 31
0.0
  0
LINE
  5
1A4
100
AcDbEntity
100
AcDbLine
  8
BLACK
 62
256
370
-1
 48
1.0
  6
ByLayer
 10
19.7682397362260609
 20
30.0779790728891498
 30
0.0
 11
19.248802309930511
 21
29.9381305350403615
 31
0.0
  0
LINE
  5
1A5
100
AcDbEntity
100
AcDbLine
  8
BLACK
 62
256
370
-1
 48
1.0
  6
ByLayer
 10
19.248802309930511
 20
29.9381305350403615
 30
0.0
 11
19.3953103019625814
 21
29.7250280011754988
 31
0.0
  0
LINE
  5
1A6
100
AcDbEntity
100
AcDbLine
  8
BLACK
 62
256
370
-1
 48
1.0
  6
ByLayer
 10
19.3953103019625814
 20
29.7250280011754988
 30
0.0
 11
19.5
 21
29.3195772789478291
 31
0.0
  0
LINE
  5
1A7
100
AcDbEntity
100
AcDbLine
  8
BLACK
 62
256
370
-1
 48
1.0
  6
ByLayer
 10
19.5
 20
29.3195772789478291
 30
0.0
 11
19.7016451943933113
 21
29.6451145509761886
 31
0.0
  0
LINE
  5
1A8
100
AcDbEntity
100
AcDbLine
  8
BLACK
 62
256
370
-1
 48
1.0
  6
ByLayer
 10
19.7016451943933113
 20
29.6451145509761886
 30
0.0
 11
19.9547044533578095
 21
29.7383469095420594
 31
0.0
  0
LINE
  5
1A9
100
AcDbEntity
100
AcDbLine
  8
BLACK
 62
256
370
-1
 48
1.0
  6
ByLayer
 10
19.9547044533578095
 20
29.7383469095420594
 30
0.0
 11
20.3409527959878211
 21
29.804941451374841
 31
0.0
  0
LINE
  5
1AA
100
AcDbEntity
100
AcDbLine
  8
BLACK
 62
256
370
-1
 48
1.0
  6
ByLayer
 10
20.3409527959878211
 20
29.804941451374841
 30
0.0
 11
20.6073309633188693
 21
29.9647683517734684
 31
0.0
  0
LINE
  5
1AB
100
AcDbEntity
100
AcDbLine
  8
BLACK
 62
256
370
-1
 48
1.0
  6
ByLayer
 10
20.6073309633188693
 20
29.9647683517734684
 30
0.0
 11
20.8737091306498996
 21
29.8315792681079301
 31
0.0
  0
LINE
  5
1AC
100
AcDbEntity
100
AcDbLine
  8
BLACK
 62
256
370
-1
 48
1.0
  6
ByLayer
 10
20.8737091306498996
 20
29.8315792681079301
 30
0.0
 11
21.1534062063475083
 21
29.9647683517734684
 31
0.0
  0
LINE
  5
1AD
100
AcDbEntity
100
AcDbLine
  8
BLACK
 62
256
370
-1
 48
1.0
  6
ByLayer
 10
21.1534062063475083
 20
29.9647683517734684
 30
0.0
 11
20.9935793059488809
 21
29.6051578258765495
 31
0.0
  0
LINE
  5
1AE
100
AcDbEntity
100
AcDbLine
  8
BLACK
 62
256
370
-1
 48
1.0
  6
ByLayer
 10
20.9935793059488809
 20
29.6051578258765495
 30
0.0
 11
21.0468549394150806
 21
29.0058069493816788
 31
0.0
  0
LINE
  5
1AF
100
AcDbEntity
100
AcDbLine
  8
BLACK
 62
256
370
-1
 48
1.0
  6
ByLayer
 10
21.0468549394150806
 20
29.0058069493816788
 30
0.0
 11
20.8337524055502605
 21
28.9258934991823686
 31
0.0
  0
LINE
  5
1B0
100
AcDbEntity
100
AcDbLine
  8
BLACK
 62
256
370
-1
 48
1.0
  6
ByLayer
 10
20.8337524055502605
 20
28.9258934991823686
 30
0.0
 11
20.70056332188474
 21
29.0990393079475496
 31
0.0
  0
LINE
  5
1B1
100
AcDbEntity
100
AcDbLine
  8
BLACK
 62
256
370
-1
 48
1.0
  6
ByLayer
 10
20.70056332188474
 20
29.0990393079475496
 30
0.0
 11
20.6339687800519584
 21
29.4719687422110006
 31
0.0
  0
LINE
  5
1B2
100
AcDbEntity
100
AcDbLine
  8
BLACK
 62
256
370
-1
 48
1.0
  6
ByLayer
 10
20.6339687800519584
 20
29.4719687422110006
 30
0.0
 11
20.1944448039557507
 21
29.5518821924103499
 31
0.0
  0
LINE
  5
1B3
100
AcDbEntity
100
AcDbLine
  8
BLACK
 62
256
370
-1
 48
1.0
  6
ByLayer
 10
20.1944448039557507
 20
29.5518821924103499
 30
0.0
 11
19.7016451943932793
 21
29.6451145509761282
 31
0.0
  0
LINE
  5
1B4
100
AcDbEntity
100
AcDbLine
  8
BLACK
 62
256
370
-1
 48
1.0
  6
ByLayer
 10
22.4453403179029713
 20
30.9903242959979117
 30
0.0
 11
22.9248210190989994
 21
31.0036432043645505
 31
0.0
  0
LINE
  5
1B5
100
AcDbEntity
100
AcDbLine
  8
BLACK
 62
256
370
-1
 48
1.0
  6
ByLayer
 10
22.9248210190989994
 20
31.0036432043645505
 30
0.0
 11
23.0979668278641803
 21
30.8038595788662803
 31
0.0
  0
LINE
  5
1B6
100
AcDbEntity
100
AcDbLine
  8
BLACK
 62
256
370
-1
 48
1.0
  6
ByLayer
 10
23.0979668278641803
 20
30.8038595788662803
 30
0.0
 11
22.7916319354334895
 21
30.7505839454000487
 31
0.0
  0
LINE
  5
1B7
100
AcDbEntity
100
AcDbLine
  8
BLACK
 62
256
370
-1
 48
1.0
  6
ByLayer
 10
22.7916319354334895
 20
30.7505839454000487
 30
0.0
 11
22.9248210190989994
 21
30.5374814115352287
 31
0.0
  0
LINE
  5
1B8
100
AcDbEntity
100
AcDbLine
  8
BLACK
 62
256
370
-1
 48
1.0
  6
ByLayer
 10
22.9248210190989994
 20
30.5374814115352287
 30
0.0
 11
22.9647777441986385
 21
30.2045087023714096
 31
0.0
  0
LINE
  5
1B9
100
AcDbEntity
100
AcDbLine
  8
BLACK
 62
256
370
-1
 48
1.0
  6
ByLayer
 10
22.9647777441986385
 20
30.2045087023714096
 30
0.0
 11
22.6584428517679406
 21
30.0713196187058713
 31
0.0
  0
LINE
  5
1BA
100
AcDbEntity
100
AcDbLine
  8
BLACK
 62
256
370
-1
 48
1.0
  6
ByLayer
 10
22.6584428517679406
 20
30.0713196187058713
 30
0.0
 11
22.6850806685010618
 21
29.8582170848410406
 31
0.0
  0
LINE
  5
1BB
100
AcDbEntity
100
AcDbLine
  8
BLACK
 62
256
370
-1
 48
1.0
  6
ByLayer
 10
22.6850806685010618
 20
29.8582170848410406
 30
0.0
 11
22.8000000000000114
 21
29.7195772789478383
 31
0.0
  0
LINE
  5
1BC
100
AcDbEntity
100
AcDbLine
  8
BLACK
 62
256
370
-1
 48
1.0
  6
ByLayer
 10
22.8000000000000114
 20
29.7195772789478383
 30
0.0
 11
22.7250373936007009
 21
30.3376977860369301
 31
0.0
  0
LINE
  5
1BD
100
AcDbEntity
100
AcDbLine
  8
BLACK
 62
256
370
-1
 48
1.0
  6
ByLayer
 10
22.7250373936007009
 20
30.3376977860369301
 30
0.0
 11
22.6451239434013907
 21
30.4842057780690006
 31
0.0
  0
LINE
  5
1BE
100
AcDbEntity
100
AcDbLine
  8
BLACK
 62
256
370
-1
 48
1.0
  6
ByLayer
 10
22.6451239434013907
 20
30.4842057780690006
 30
0.0
 11
22.3999999999999808
 21
30.2195772789478383
 31
0.0
  0
LINE
  5
1BF
100
AcDbEntity
100
AcDbLine
  8
BLACK
 62
256
370
-1
 48
1.0
  6
ByLayer
 10
22.3999999999999808
 20
30.2195772789478383
 30
0.0
 11
22.2855134175044896
 21
30.5108435948021111
 31
0.0
  0
LINE
  5
1C0
100
AcDbEntity
100
AcDbLine
  8
BLACK
 62
256
370
-1
 48
1.0
  6
ByLayer
 10
22.2855134175044896
 20
30.5108435948021111
 30
0.0
 11
22.8582264772662391
 21
30.6440326784676209
 31
0.0
  0
LINE
  5
1C1
100
AcDbEntity
100
AcDbLine
  8
BLACK
 62
256
370
-1
 48
1.0
  6
ByLayer
 10
23.3377071784621286
 20
31.0702377461973107
 30
0.0
 11
23.3243882700955716
 21
30.5374814115352287
 31
0.0
  0
LINE
  5
1C2
100
AcDbEntity
100
AcDbLine
  8
BLACK
 62
256
370
-1
 48
1.0
  6
ByLayer
 10
23.3243882700955716
 20
30.5374814115352287
 30
0.0
 11
23.65736097925938
 21
29.9914061685065612
 31
0.0
  0
LINE
  5
1C3
100
AcDbEntity
100
AcDbLine
  8
BLACK
 62
256
370
-1
 48
1.0
  6
ByLayer
 10
23.65736097925938
 20
29.9914061685065612
 30
0.0
 11
23.7772311545583612
 21
30.2045087023714096
 31
0.0
  0
LINE
  5
1C4
100
AcDbEntity
100
AcDbLine
  8
BLACK
 62
256
370
-1
 48
1.0
  6
ByLayer
 10
23.7772311545583612
 20
30.2045087023714096
 30
0.0
 11
23.3377071784621286
 21
30.6706704952007385
 31
0.0
  0
LINE
  5
1C5
100
AcDbEntity
100
AcDbLine
  8
BLACK
 62
256
370
-1
 48
1.0
  6
ByLayer
 10
47.7028610042096375
 20
7.5147646210812704
 30
0.0
 11
47.7028610042096375
 21
8.5147646210812695
 31
0.0
  0
LINE
  5
1C6
100
AcDbEntity
100
AcDbLine
  8
BLACK
 62
256
370
-1
 48
1.0
  6
ByLayer
 10
48.7028610042096375
 20
7.5147646210812704
 30
0.0
 11
48.7028610042096375
 21
8.5147646210812695
 31
0.0
  0
LINE
  5
1C7
100
AcDbEntity
100
AcDbLine
  8
BLACK
 62
256
370
-1
 48
1.0
  6
ByLayer
 10
48.7028610042096375
 20
17.5147646210812695
 30
0.0
 11
48.7028610042096375
 21
18.5147646210812695
 31
0.0
  0
LINE
  5
1C8
100
AcDbEntity
100
AcDbLine
  8
BLACK
 62
256
370
-1
 48
1.0
  6
ByLayer
 10
47.7028610042096375
 20
17.5147646210812695
 30
0.0
 11
47.7028610042096375
 21
18.5147646210812695
 31
0.0
  0
LINE
  5
1C9
100
AcDbEntity
100
AcDbLine
  8
BLACK
 62
256
370
-1
 48
1.0
  6
ByLayer
 10
48.7028610042096375
 20
8.5147646210812695
 30
0.0
 11
53.7028610042096375
 21
8.5147646210812695
 31
0.0
  0
LINE
  5
1CA
100
AcDbEntity
100
AcDbLine
  8
BLACK
 62
256
370
-1
 48
1.0
  6
ByLayer
 10
48.7028610042096375
 20
7.5147646210812704
 30
0.0
 11
54.7028610042096375
 21
7.5147646210812713
 31
0.0
  0
LINE
  5
1CB
100
AcDbEntity
100
AcDbLine
  8
BLACK
 62
256
370
-1
 48
1.0
  6
ByLayer
 10
47.7028610042096375
 20
8.5147646210812695
 30
0.0
 11
42.7028610042096375
 21
8.5147646210812695
 31
0.0
  0
LINE
  5
1CC
100
AcDbEntity
100
AcDbLine
  8
BLACK
 62
256
370
-1
 48
1.0
  6
ByLayer
 10
41.7028610042096375
 20
7.5147646210812713
 30
0.0
 11
47.7028610042096375
 21
7.5147646210812704
 31
0.0
  0
LINE
  5
1CD
100
AcDbEntity
100
AcDbLine
  8
BLACK
 62
256
370
-1
 48
1.0
  6
ByLayer
 10
48.7028610042096375
 20
17.5147646210812695
 30
0.0
 11
53.7028610042096375
 21
17.5147646210812695
 31
0.0
  0
LINE
  5
1CE
100
AcDbEntity
100
AcDbLine
  8
BLACK
 62
256
370
-1
 48
1.0
  6
ByLayer
 10
48.7028610042096304
 20
18.5147646210812695
 30
0.0
 11
54.7028610042096375
 21
18.5147646210812695
 31
0.0
  0
LINE
  5
1CF
100
AcDbEntity
100
AcDbLine
  8
BLACK
 62
256
370
-1
 48
1.0
  6
ByLayer
 10
47.7028610042096304
 20
18.5147646210812695
 30
0.0
 11
41.7028610042096375
 21
18.5147646210812695
 31
0.0
  0
LINE
  5
1D0
100
AcDbEntity
100
AcDbLine
  8
BLACK
 62
256
370
-1
 48
1.0
  6
ByLayer
 10
42.7028610042096375
 20
17.5147646210812695
 30
0.0
 11
47.7028610042096375
 21
17.5147646210812695
 31
0.0
  0
LINE
  5
1D1
100
AcDbEntity
100
AcDbLine
  8
0
 62
256
370
-1
 48
1.0
  6
ByLayer
 10
1.0
 20
0.0
 30
0.0
 11
1.0
 21
0.0
 31
0.0
  0
LINE
  5
1D2
100
AcDbEntity
100
AcDbLine
  8
0
 62
256
370
-1
 48
1.0
  6
ByLayer
 10
1.0
 20
0.0
 30
0.0
 11
1.0
 21
0.0
 31
0.0
  0
IMAGE
  5
1D3
  8
0
 62
256
370
-1
 48
1.0
  6
ByLayer
100
AcDbEntity
100
AcDbRasterImage
 90
0
 10
40.0
 20
80.0
 30
0.0
 11
0.2461538461538462
 21
0.0
 31
0.0
 12
0.0
 22
0.2461538461538462
 32
0.0
 13
80.0
 23
64.0
340
1D4
 70
15
280
0
281
50
282
50
283
0
  0
ARC
  5
1D5
100
AcDbEntity
  8
BLACK
 62
256
370
-1
 48
1.0
  6
ByLayer
100
AcDbCircle
 10
20.4765088631740753
 20
60.7368763226344299
 30
0.0
 40
10.0
100
AcDbArc
 50
101.4479705976530965
 51
105.1103279719518042
  0
ARC
  5
1D6
100
AcDbEntity
  8
BLACK
 62
256
370
-1
 48
1.0
  6
ByLayer
100
AcDbCircle
 10
6.4945863179914909
 20
78.3114116717922286
 30
0.0
 40
10.0
100
AcDbArc
 50
275.7812599618454215
 51
281.4479705976530113
  0
ARC
  5
1D7
100
AcDbEntity
  8
BLACK
 62
256
370
-1
 48
1.0
  6
ByLayer
100
AcDbCircle
 10
-20.2595504819645953
 20
80.2126213146276399
 30
0.0
 40
10.0
100
AcDbArc
 50
254.8880605919755169
 51
258.5503685857707978
  0
ARC
  5
1D8
100
AcDbEntity
  8
BLACK
 62
256
370
-1
 48
1.0
  6
ByLayer
100
AcDbCircle
 10
-10.8738732834706013
 20
78.311674628789234
 30
0.0
 40
10.0
100
AcDbArc
 50
258.5503685857709115
 51
264.2170286511781114
  0
ARC
  5
1D9
100
AcDbEntity
  8
BLACK
 62
256
370
-1
 48
1.0
  6
ByLayer
100
AcDbCircle
 10
-2.1896390138108615
 20
77.4321698379841905
 30
0.0
 40
10.0
100
AcDbArc
 50
264.2170286511781114
 51
275.7812599618454215
  0
ARC
  5
1DA
100
AcDbEntity
  8
BLACK
 62
256
370
-1
 48
1.0
  6
ByLayer
100
AcDbCircle
 10
-40.9261265015845197
 20
77.5069485837471177
 30
0.0
 40
2.0
100
AcDbArc
 50
180.0
 51
254.8880605919756022
  0
ARC
  5
1DB
100
AcDbEntity
  8
BLACK
 62
256
370
-1
 48
1.0
  6
ByLayer
100
AcDbCircle
 10
36.5465482531251382
 20
77.505763958007293
 30
0.0
 40
2.0
100
AcDbArc
 50
285.1103279719521879
 51
0.0
  0
ARC
  5
1DC
100
AcDbEntity
  8
BLACK
 62
256
370
-1
 48
1.0
  6
ByLayer
100
AcDbCircle
 10
36.5465482531251666
 20
82.9741972535898924
 30
0.0
 40
2.0
100
AcDbArc
 50
0.0
 51
89.9991355324206239
  0
ARC
  5
1DD
100
AcDbEntity
  8
BLACK
 62
256
370
-1
 48
1.0
  6
ByLayer
100
AcDbCircle
 10
-40.9261265015844913
 20
82.9753661462420382
 30
0.0
 40
2.0
100
AcDbArc
 50
89.9991355324197855
 51
180.0
  0
LINE
  5
1DE
100
AcDbEntity
100
AcDbLine
  8
BLACK
 62
256
370
-1
 48
1.0
  6
ByLayer
 10
-40.9260963259733899
 20
84.9753661460144087
 30
0.0
 11
36.5465784287362396
 21
84.9741972533622913
 31
0.0
  0
LINE
  5
1DF
100
AcDbEntity
100
AcDbLine
  8
BLACK
 62
256
370
-1
 48
1.0
  6
ByLayer
 10
17.8697234859629219
 20
70.3911328966621852
 30
0.0
 11
37.0679053285673774
 21
75.574912643201742
 31
0.0
  0
LINE
  5
1E0
100
AcDbEntity
100
AcDbLine
  8
BLACK
 62
256
370
-1
 48
1.0
  6
ByLayer
 10
8.4793662982086886
 20
68.5103582370776678
 30
0.0
 11
18.4917288829568776
 21
70.5379297573489339
 31
0.0
  0
LINE
  5
1E1
100
AcDbEntity
100
AcDbLine
  8
BLACK
 62
256
370
-1
 48
1.0
  6
ByLayer
 10
-22.8666073828090362
 20
70.5584380599053134
 30
0.0
 11
-41.4475378817533908
 21
75.5761119328026894
 31
0.0
  0
LINE
  5
1E2
100
AcDbEntity
100
AcDbLine
  8
BLACK
 62
256
370
-1
 48
1.0
  6
ByLayer
 10
-12.8589373632212585
 20
68.510678730448916
 30
0.0
 11
-22.2446145617152808
 21
70.4116254162872508
 31
0.0
  0
LINE
  5
1E3
100
AcDbEntity
100
AcDbLine
  8
BLACK
 62
256
370
-1
 48
1.0
  6
ByLayer
 10
-3.19724509559137
 20
67.4830628436877191
 30
0.0
 11
-11.8814793652511241
 21
68.3625676344927911
 31
0.0
  0
LINE
  5
1E4
100
AcDbEntity
100
AcDbLine
  8
BLACK
 62
256
370
-1
 48
1.0
  6
ByLayer
 10
7.5018952260877683
 20
68.3622745854077891
 30
0.0
 11
-1.1823301057145414
 21
67.4830327515997794
 31
0.0
  0
LINE
  5
1E5
100
AcDbEntity
100
AcDbLine
  8
BLACK
 62
256
370
-1
 48
1.0
  6
ByLayer
 10
-42.9261265015844913
 20
82.9753661462420382
 30
0.0
 11
-42.9261265015844913
 21
77.5069485837471177
 31
0.0
  0
LINE
  5
1E6
100
AcDbEntity
100
AcDbLine
  8
BLACK
 62
256
370
-1
 48
1.0
  6
ByLayer
 10
38.5465482531251382
 20
82.9741972535898924
 30
0.0
 11
38.5465482531251382
 21
77.505763958007293
 31
0.0
  0
CIRCLE
  5
1E7
100
AcDbEntity
100
AcDbCircle
  8
BLACK
 62
256
370
-1
 48
1.0
  6
ByLayer
 10
35.0465632672939194
 20
82.4767735295567377
 30
0.0
 40
1.5
  0
CIRCLE
  5
1E8
100
AcDbEntity
100
AcDbCircle
  8
BLACK
 62
256
370
-1
 48
1.0
  6
ByLayer
 10
-39.4261124736121928
 20
82.4757276609219332
 30
0.0
 40
1.5
  0
LINE
  5
1E9
100
AcDbEntity
100
AcDbLine
  8
0
 62
256
370
-1
 48
1.0
  6
ByLayer
 10
-8.7610821224557185
 20
76.8494568464559649
 30
0.0
 11
-7.9523798084151949
 21
76.1772886893313768
 31
0.0
  0
LINE
  5
1EA
100
AcDbEntity
100
AcDbLine
  8
0
 62
256
370
-1
 48
1.0
  6
ByLayer
 10
-7.9523798084151949
 20
76.1772886893313768
 30
0.0
 11
-7.1856880041949509
 21
75.8201993558589322
 31
0.0
  0
LINE
  5
1EB
100
AcDbEntity
100
AcDbLine
  8
0
 62
256
370
-1
 48
1.0
  6
ByLayer
 10
-7.1856880041949509
 20
75.8201993558589322
 30
0.0
 11
-5.8518543174008393
 21
75.4421047674763514
 31
0.0
  0
LINE
  5
1EC
100
AcDbEntity
100
AcDbLine
  8
0
 62
256
370
-1
 48
1.0
  6
ByLayer
 10
-5.8518543174008393
 20
75.4421047674763514
 30
0.0
 11
-3.9823866303980644
 21
75.3160732380154911
 31
0.0
  0
LINE
  5
1ED
100
AcDbEntity
100
AcDbLine
  8
0
 62
256
370
-1
 48
1.0
  6
ByLayer
 10
-3.9823866303980644
 20
75.3160732380154911
 30
0.0
 11
-2.3019662375865693
 21
75.4526073949314195
 31
0.0
  0
LINE
  5
1EE
100
AcDbEntity
100
AcDbLine
  8
0
 62
256
370
-1
 48
1.0
  6
ByLayer
 10
-2.3019662375865693
 20
75.4526073949314195
 30
0.0
 11
-1.251703492079411
 21
75.6416546891226744
 31
0.0
  0
LINE
  5
1EF
100
AcDbEntity
100
AcDbLine
  8
0
 62
256
370
-1
 48
1.0
  6
ByLayer
 10
-1.251703492079411
 20
75.6416546891226744
 30
0.0
 11
-0.6215458447751026
 21
75.8832151205893268
 31
0.0
  0
LINE
  5
1F0
100
AcDbEntity
100
AcDbLine
  8
0
 62
256
370
-1
 48
1.0
  6
ByLayer
 10
-0.6215458447751026
 20
75.8832151205893268
 30
0.0
 11
-0.1804354916620952
 21
76.1352781795110474
 31
0.0
  0
LINE
  5
1F1
100
AcDbEntity
100
AcDbLine
  8
0
 62
256
370
-1
 48
1.0
  6
ByLayer
 10
-0.1804354916620952
 20
76.1352781795110474
 30
0.0
 11
0.155648586900206
 21
76.3873412384327821
 31
0.0
  0
LINE
  5
1F2
100
AcDbEntity
100
AcDbLine
  8
0
 62
256
370
-1
 48
1.0
  6
ByLayer
 10
0.155648586900206
 20
76.3873412384327821
 30
0.0
 11
0.4287169007320735
 21
76.6814148071747752
 31
0.0
  0
LINE
  5
1F3
100
AcDbEntity
100
AcDbLine
  8
0
 62
256
370
-1
 48
1.0
  6
ByLayer
 10
0.4287169007320735
 20
76.6814148071747752
 30
0.0
 11
0.5757536851030771
 21
76.8809647288211409
 31
0.0
  0
LINE
  5
1F4
100
AcDbEntity
100
AcDbLine
  8
0
 62
256
370
-1
 48
1.0
  6
ByLayer
 10
0.5757536851030771
 20
76.8809647288211409
 30
0.0
 11
0.628266822378432
 21
75.7151730813081798
 31
0.0
  0
LINE
  5
1F5
100
AcDbEntity
100
AcDbLine
  8
0
 62
256
370
-1
 48
1.0
  6
ByLayer
 10
0.628266822378432
 20
75.7151730813081798
 30
0.0
 11
0.2186643516306361
 21
75.3580837478357353
 31
0.0
  0
LINE
  5
1F6
100
AcDbEntity
100
AcDbLine
  8
0
 62
256
370
-1
 48
1.0
  6
ByLayer
 10
0.2186643516306361
 20
75.3580837478357353
 30
0.0
 11
-0.1384249818418084
 21
75.1165233163690829
 31
0.0
  0
LINE
  5
1F7
100
AcDbEntity
100
AcDbLine
  8
0
 62
256
370
-1
 48
1.0
  6
ByLayer
 10
-0.1384249818418084
 20
75.1165233163690829
 30
0.0
 11
-0.6005405898649627
 21
74.9064707672676491
 31
0.0
  0
LINE
  5
1F8
100
AcDbEntity
100
AcDbLine
  8
0
 62
256
370
-1
 48
1.0
  6
ByLayer
 10
-0.6005405898649627
 20
74.9064707672676491
 30
0.0
 11
-1.4827612960909917
 21
74.6123971985256418
 31
0.0
  0
LINE
  5
1F9
100
AcDbEntity
100
AcDbLine
  8
0
 62
256
370
-1
 48
1.0
  6
ByLayer
 10
-1.4827612960909917
 20
74.6123971985256418
 30
0.0
 11
-2.6524995386026191
 21
74.398083857593349
 31
0.0
  0
LINE
  5
1FA
100
AcDbEntity
100
AcDbLine
  8
0
 62
256
370
-1
 48
1.0
  6
ByLayer
 10
-2.6524995386026191
 20
74.398083857593349
 30
0.0
 11
-3.9613813754879317
 21
74.2868157474184159
 31
0.0
  0
LINE
  5
1FB
100
AcDbEntity
100
AcDbLine
  8
0
 62
256
370
-1
 48
1.0
  6
ByLayer
 10
-3.9613813754879317
 20
74.2868157474184159
 30
0.0
 11
-5.7153201604849144
 21
74.402344649424208
 31
0.0
  0
LINE
  5
1FC
100
AcDbEntity
100
AcDbLine
  8
0
 62
256
370
-1
 48
1.0
  6
ByLayer
 10
-5.7153201604849144
 20
74.402344649424208
 30
0.0
 11
-6.5765356118008071
 21
74.5283761788850683
 31
0.0
  0
LINE
  5
1FD
100
AcDbEntity
100
AcDbLine
  8
0
 62
256
370
-1
 48
1.0
  6
ByLayer
 10
-6.5765356118008071
 20
74.5283761788850683
 30
0.0
 11
-7.2066932591051156
 21
74.7279261005314339
 31
0.0
  0
LINE
  5
1FE
100
AcDbEntity
100
AcDbLine
  8
0
 62
256
370
-1
 48
1.0
  6
ByLayer
 10
-7.2066932591051156
 20
74.7279261005314339
 30
0.0
 11
-7.6162957298529115
 21
74.8959681398125809
 31
0.0
  0
LINE
  5
1FF
100
AcDbEntity
100
AcDbLine
  8
0
 62
256
370
-1
 48
1.0
  6
ByLayer
 10
-7.6162957298529115
 20
74.8959681398125809
 30
0.0
 11
-8.0469034555108507
 21
75.1585338261893696
 31
0.0
  0
LINE
  5
200
100
AcDbEntity
100
AcDbLine
  8
0
 62
256
370
-1
 48
1.0
  6
ByLayer
 10
-8.0469034555108507
 20
75.1585338261893696
 30
0.0
 11
-8.5090190635340157
 21
75.4526073949313911
 31
0.0
  0
LINE
  5
201
100
AcDbEntity
100
AcDbLine
  8
0
 62
256
370
-1
 48
1.0
  6
ByLayer
 10
-8.5090190635340157
 20
75.4526073949313911
 30
0.0
 11
-8.7925900048209513
 21
75.6941678263980293
 31
0.0
  0
LINE
  5
202
100
AcDbEntity
100
AcDbLine
  8
0
 62
256
370
-1
 48
1.0
  6
ByLayer
 10
-8.7925900048209513
 20
75.6941678263980293
 30
0.0
 11
-8.7610821224557185
 21
76.8494568464559649
 31
0.0
  0
LINE
  5
203
100
AcDbEntity
100
AcDbLine
  8
0
 62
256
370
-1
 48
1.0
  6
ByLayer
 10
-8.0763108123850813
 20
71.731820561168206
 30
0.0
 11
-8.4392816172323606
 21
72.4396136306203999
 31
0.0
  0
LINE
  5
204
100
AcDbEntity
100
AcDbLine
  8
0
 62
256
370
-1
 48
1.0
  6
ByLayer
 10
-8.4392816172323606
 20
72.4396136306203999
 30
0.0
 11
-8.7115097208678272
 21
72.984069837891326
 31
0.0
  0
LINE
  5
205
100
AcDbEntity
100
AcDbLine
  8
0
 62
256
370
-1
 48
1.0
  6
ByLayer
 10
-8.7115097208678272
 20
72.984069837891326
 30
0.0
 11
-9.6552338134707512
 21
73.1837037805573232
 31
0.0
  0
LINE
  5
206
100
AcDbEntity
100
AcDbLine
  8
0
 62
256
370
-1
 48
1.0
  6
ByLayer
 10
-9.6552338134707512
 20
73.1837037805573232
 30
0.0
 11
-10.6715520670431339
 21
73.6555658268587905
 31
0.0
  0
LINE
  5
207
100
AcDbEntity
100
AcDbLine
  8
0
 62
256
370
-1
 48
1.0
  6
ByLayer
 10
-11.17307353327773
 20
76.4062459678518593
 30
0.0
 11
-10.5849263957937048
 21
76.7423300464141391
 31
0.0
  0
LINE
  5
208
100
AcDbEntity
100
AcDbLine
  8
0
 62
256
370
-1
 48
1.0
  6
ByLayer
 10
-10.5849263957937048
 20
76.7423300464141391
 30
0.0
 11
-9.524161022831457
 21
77.1729377720721033
 31
0.0
  0
LINE
  5
209
100
AcDbEntity
100
AcDbLine
  8
0
 62
256
370
-1
 48
1.0
  6
ByLayer
 10
-9.524161022831457
 20
77.1729377720721033
 30
0.0
 11
-8.8519928657068618
 21
77.393492948628591
 31
0.0
  0
LINE
  5
20A
100
AcDbEntity
100
AcDbLine
  8
0
 62
256
370
-1
 48
1.0
  6
ByLayer
 10
-8.8519928657068618
 20
77.393492948628591
 30
0.0
 11
-8.6524429440604962
 21
77.5300271055445336
 31
0.0
  0
LINE
  5
20B
100
AcDbEntity
100
AcDbLine
  8
0
 62
256
370
-1
 48
1.0
  6
ByLayer
 10
-8.6524429440604962
 20
77.5300271055445336
 30
0.0
 11
-8.274348355677958
 21
80.3237260085936242
 31
0.0
  0
LINE
  5
20C
100
AcDbEntity
100
AcDbLine
  8
0
 62
256
370
-1
 48
1.0
  6
ByLayer
 10
-8.274348355677958
 20
80.3237260085936242
 30
0.0
 11
-7.7387143554692912
 21
80.7333284793414094
 31
0.0
  0
LINE
  5
20D
100
AcDbEntity
100
AcDbLine
  8
0
 62
256
370
-1
 48
1.0
  6
ByLayer
 10
-7.7387143554692912
 20
80.7333284793414094
 30
0.0
 11
-6.9930278061592013
 21
81.0274020480834167
 31
0.0
  0
LINE
  5
20E
100
AcDbEntity
100
AcDbLine
  8
0
 62
256
370
-1
 48
1.0
  6
ByLayer
 10
-6.9930278061592013
 20
81.0274020480834167
 30
0.0
 11
-6.0267860802925917
 21
81.3214756168254382
 31
0.0
  0
LINE
  5
20F
100
AcDbEntity
100
AcDbLine
  8
0
 62
256
370
-1
 48
1.0
  6
ByLayer
 10
-6.0267860802925917
 20
81.3214756168254382
 30
0.0
 11
-5.0710469818810608
 21
81.4685124011964348
 31
0.0
  0
LINE
  5
210
100
AcDbEntity
100
AcDbLine
  8
0
 62
256
370
-1
 48
1.0
  6
ByLayer
 10
-5.0710469818810608
 20
81.4685124011964348
 30
0.0
 11
-3.831736942182598
 21
81.5000202835616534
 31
0.0
  0
LINE
  5
211
100
AcDbEntity
100
AcDbLine
  8
0
 62
256
370
-1
 48
1.0
  6
ByLayer
 10
-3.831736942182598
 20
81.5000202835616534
 30
0.0
 11
-2.2773480788319738
 21
81.4685124011964348
 31
0.0
  0
LINE
  5
212
100
AcDbEntity
100
AcDbLine
  8
0
 62
256
370
-1
 48
1.0
  6
ByLayer
 10
-2.2773480788319738
 20
81.4685124011964348
 30
0.0
 11
-1.2795984706001491
 21
81.2164493422747285
 31
0.0
  0
LINE
  5
213
100
AcDbEntity
100
AcDbLine
  8
0
 62
256
370
-1
 48
1.0
  6
ByLayer
 10
-1.2795984706001491
 20
81.2164493422747285
 30
0.0
 11
-0.670446078205984
 21
80.9013705186225565
 31
0.0
  0
LINE
  5
214
100
AcDbEntity
100
AcDbLine
  8
0
 62
256
370
-1
 48
1.0
  6
ByLayer
 10
-0.670446078205984
 20
80.9013705186225565
 30
0.0
 11
-0.2608436074581846
 21
80.5757890675153448
 31
0.0
  0
LINE
  5
215
100
AcDbEntity
100
AcDbLine
  8
0
 62
256
370
-1
 48
1.0
  6
ByLayer
 10
-0.2608436074581846
 20
80.5757890675153448
 30
0.0
 11
-0.1033041956321128
 21
80.260710243863187
 31
0.0
  0
LINE
  5
216
100
AcDbEntity
100
AcDbLine
  8
0
 62
256
370
-1
 48
1.0
  6
ByLayer
 10
-0.1033041956321128
 20
80.260710243863187
 30
0.0
 11
-0.7124565880262779
 21
79.8090972632951008
 31
0.0
  0
LINE
  5
217
100
AcDbEntity
100
AcDbLine
  8
0
 62
256
370
-1
 48
1.0
  6
ByLayer
 10
-0.7124565880262779
 20
79.8090972632951008
 30
0.0
 11
-1.3006037255102925
 21
79.5465315769183121
 31
0.0
  0
LINE
  5
218
100
AcDbEntity
100
AcDbLine
  8
0
 62
256
370
-1
 48
1.0
  6
ByLayer
 10
-1.3006037255102925
 20
79.5465315769183121
 30
0.0
 11
-2.0224995386026272
 21
79.2280838575933473
 31
0.0
  0
LINE
  5
219
100
AcDbEntity
100
AcDbLine
  8
0
 62
256
370
-1
 48
1.0
  6
ByLayer
 10
-2.0224995386026272
 20
79.2280838575933473
 30
0.0
 11
-2.5824995386026259
 21
79.0880838575933467
 31
0.0
  0
LINE
  5
21A
100
AcDbEntity
100
AcDbLine
  8
0
 62
256
370
-1
 48
1.0
  6
ByLayer
 10
-2.5824995386026259
 20
79.0880838575933467
 30
0.0
 11
-3.0024995386026205
 21
79.0180838575933535
 31
0.0
  0
LINE
  5
21B
100
AcDbEntity
100
AcDbLine
  8
0
 62
256
370
-1
 48
1.0
  6
ByLayer
 10
-3.0024995386026205
 20
79.0180838575933535
 30
0.0
 11
-3.9124995386026278
 21
79.0180838575933535
 31
0.0
  0
LINE
  5
21C
100
AcDbEntity
100
AcDbLine
  8
0
 62
256
370
-1
 48
1.0
  6
ByLayer
 10
-3.9124995386026278
 20
79.0180838575933535
 30
0.0
 11
-4.6124995386026271
 21
79.0180838575933535
 31
0.0
  0
LINE
  5
21D
100
AcDbEntity
100
AcDbLine
  8
0
 62
256
370
-1
 48
1.0
  6
ByLayer
 10
-4.6124995386026271
 20
79.0180838575933535
 30
0.0
 11
-4.0524995386026212
 21
78.8080838575933456
 31
0.0
  0
LINE
  5
21E
100
AcDbEntity
100
AcDbLine
  8
0
 62
256
370
-1
 48
1.0
  6
ByLayer
 10
-4.0524995386026212
 20
78.8080838575933456
 30
0.0
 11
-3.0724995386026279
 21
78.7380838575933524
 31
0.0
  0
LINE
  5
21F
100
AcDbEntity
100
AcDbLine
  8
0
 62
256
370
-1
 48
1.0
  6
ByLayer
 10
-3.0724995386026279
 20
78.7380838575933524
 30
0.0
 11
-2.1624995386026278
 21
78.7380838575933524
 31
0.0
  0
LINE
  5
220
100
AcDbEntity
100
AcDbLine
  8
0
 62
256
370
-1
 48
1.0
  6
ByLayer
 10
-2.1624995386026278
 20
78.7380838575933524
 30
0.0
 11
-1.3224995386026279
 21
78.9480838575933461
 31
0.0
  0
LINE
  5
221
100
AcDbEntity
100
AcDbLine
  8
0
 62
256
370
-1
 48
1.0
  6
ByLayer
 10
-1.3224995386026279
 20
78.9480838575933461
 30
0.0
 11
-0.6224995386026251
 21
79.1580838575933399
 31
0.0
  0
LINE
  5
222
100
AcDbEntity
100
AcDbLine
  8
0
 62
256
370
-1
 48
1.0
  6
ByLayer
 10
-0.6224995386026251
 20
79.1580838575933399
 30
0.0
 11
-0.1324995386026231
 21
79.5080838575933484
 31
0.0
  0
LINE
  5
223
100
AcDbEntity
100
AcDbLine
  8
0
 62
256
370
-1
 48
1.0
  6
ByLayer
 10
-0.1324995386026231
 20
79.5080838575933484
 30
0.0
 11
0.1475004613973709
 21
79.7180838575933564
 31
0.0
  0
LINE
  5
224
100
AcDbEntity
100
AcDbLine
  8
0
 62
256
370
-1
 48
1.0
  6
ByLayer
 10
0.1475004613973709
 20
79.7180838575933564
 30
0.0
 11
0.5675004613973726
 21
77.5480838575933404
 31
0.0
  0
LINE
  5
225
100
AcDbEntity
100
AcDbLine
  8
0
 62
256
370
-1
 48
1.0
  6
ByLayer
 10
0.5675004613973726
 20
77.5480838575933404
 30
0.0
 11
0.7075004613973768
 21
77.3380838575933467
 31
0.0
  0
LINE
  5
226
100
AcDbEntity
100
AcDbLine
  8
0
 62
256
370
-1
 48
1.0
  6
ByLayer
 10
0.7075004613973768
 20
77.3380838575933467
 30
0.0
 11
1.4075004613973761
 21
77.1980838575933461
 31
0.0
  0
LINE
  5
227
100
AcDbEntity
100
AcDbLine
  8
0
 62
256
370
-1
 48
1.0
  6
ByLayer
 10
1.4075004613973761
 20
77.1980838575933461
 30
0.0
 11
2.1075004613973789
 21
76.918083857593345
 31
0.0
  0
LINE
  5
228
100
AcDbEntity
100
AcDbLine
  8
0
 62
256
370
-1
 48
1.0
  6
ByLayer
 10
2.1075004613973789
 20
76.918083857593345
 30
0.0
 11
2.5975004613973667
 21
76.6380838575933439
 31
0.0
  0
LINE
  5
229
100
AcDbEntity
100
AcDbLine
  8
0
 62
256
370
-1
 48
1.0
  6
ByLayer
 10
2.5975004613973667
 20
76.6380838575933439
 30
0.0
 11
3.1575004613973761
 21
76.2180838575933564
 31
0.0
  0
LINE
  5
22A
100
AcDbEntity
100
AcDbLine
  8
0
 62
256
370
-1
 48
1.0
  6
ByLayer
 10
2.6675004613973741
 20
73.9080838575933541
 30
0.0
 11
2.2475004613973688
 21
73.6280838575933529
 31
0.0
  0
LINE
  5
22B
100
AcDbEntity
100
AcDbLine
  8
0
 62
256
370
-1
 48
1.0
  6
ByLayer
 10
2.2475004613973688
 20
73.6280838575933529
 30
0.0
 11
1.6875004613973701
 21
73.3480838575933376
 31
0.0
  0
LINE
  5
22C
100
AcDbEntity
100
AcDbLine
  8
0
 62
256
370
-1
 48
1.0
  6
ByLayer
 10
1.6875004613973701
 20
73.3480838575933376
 30
0.0
 11
1.1275004613973749
 21
73.1380838575933439
 31
0.0
  0
LINE
  5
22D
100
AcDbEntity
100
AcDbLine
  8
0
 62
256
370
-1
 48
1.0
  6
ByLayer
 10
1.1275004613973749
 20
73.1380838575933439
 30
0.0
 11
0.6375004613973729
 21
72.9280838575933501
 31
0.0
  0
LINE
  5
22E
100
AcDbEntity
100
AcDbLine
  8
0
 62
256
370
-1
 48
1.0
  6
ByLayer
 10
0.6375004613973729
 20
72.9280838575933501
 30
0.0
 11
0.4275004613973721
 21
72.7180838575933564
 31
0.0
  0
LINE
  5
22F
100
AcDbEntity
100
AcDbLine
  8
0
 62
256
370
-1
 48
1.0
  6
ByLayer
 10
0.4275004613973721
 20
72.7180838575933564
 30
0.0
 11
0.2175004613973748
 21
72.2980838575933404
 31
0.0
  0
LINE
  5
230
100
AcDbEntity
100
AcDbLine
  8
0
 62
256
370
-1
 48
1.0
  6
ByLayer
 10
0.2175004613973854
 20
72.2980838575933404
 30
0.0
 11
0.0414147172074806
 21
71.8420381159089771
 31
0.0
  0
LINE
  5
231
100
AcDbEntity
100
AcDbLine
  8
0
 62
256
370
-1
 48
1.0
  6
ByLayer
 10
0.0414147172074806
 20
71.8420381159089771
 30
0.0
 11
-0.0190804169337397
 21
71.2975819086380369
 31
0.0
  0
ARC
  5
232
100
AcDbEntity
  8
0
 62
256
370
-1
 48
1.0
  6
ByLayer
100
AcDbCircle
 10
-4.0988179980376955
 20
76.73770051836145
 30
0.0
 40
7.4928627767409735
100
AcDbArc
 50
245.9634037375383571
 51
255.7003554074814531
  0
ARC
  5
233
100
AcDbEntity
  8
0
 62
256
370
-1
 48
1.0
  6
ByLayer
100
AcDbCircle
 10
-4.0988179980376955
 20
76.73770051836145
 30
0.0
 40
7.4928627767409735
100
AcDbArc
 50
201.9916796083566908
 51
238.7882548793189414
  0
ARC
  5
234
100
AcDbEntity
  8
0
 62
256
370
-1
 48
1.0
  6
ByLayer
100
AcDbCircle
 10
-4.0988179980376955
 20
76.73770051836145
 30
0.0
 40
7.4928627767409735
100
AcDbArc
 50
354.1983619628448423
 51
186.703540456345138
  0
ARC
  5
235
100
AcDbEntity
  8
0
 62
256
370
-1
 48
1.0
  6
ByLayer
100
AcDbCircle
 10
-4.0988179980376955
 20
76.73770051836145
 30
0.0
 40
7.4928627767409735
100
AcDbArc
 50
302.4445667934073185
 51
338.8567609411858257
  0
ARC
  5
236
100
AcDbEntity
  8
0
 62
256
370
-1
 48
1.0
  6
ByLayer
100
AcDbCircle
 10
-4.0988179980376955
 20
76.73770051836145
 30
0.0
 40
7.4928627767409735
100
AcDbArc
 50
265.9240520249022666
 51
299.3980883517501184
  0
ARC
  5
237
100
AcDbEntity
  8
0
 62
256
370
-1
 48
1.0
  6
ByLayer
100
AcDbCircle
 10
-4.0988179980376955
 20
76.73770051836145
 30
0.0
 40
7.4928627767409735
100
AcDbArc
 50
201.9916796083566908
 51
238.7882548793189414
  0
LINE
  5
238
100
AcDbEntity
100
AcDbLine
  8
0
 62
256
370
-1
 48
1.0
  6
ByLayer
 10
-11.17307353327773
 20
76.4062459678518593
 30
0.0
 11
-11.5566086073085437
 21
76.0135791063441104
 31
0.0
  0
LINE
  5
239
100
AcDbEntity
100
AcDbLine
  8
0
 62
256
370
-1
 48
1.0
  6
ByLayer
 10
-10.6715520670431339
 20
73.6555658268587905
 30
0.0
 11
-11.0464869253951843
 21
73.9318336172234609
 31
0.0
  0
LINE
  5
23A
100
AcDbEntity
100
AcDbLine
  8
0
 62
256
370
-1
 48
1.0
  6
ByLayer
 10
3.1575004613973761
 20
76.2180838575933564
 30
0.0
 11
3.3556649816710795
 21
75.9802864332649079
 31
0.0
  0
LINE
  5
23B
100
AcDbEntity
100
AcDbLine
  8
0
 62
256
370
-1
 48
1.0
  6
ByLayer
 10
2.6675004613973741
 20
73.9080838575933541
 30
0.0
 11
2.8896371895136834
 21
74.0350191308026666
 31
0.0
  0
LINE
  5
23C
100
AcDbEntity
100
AcDbLine
  8
0
 62
256
370
-1
 48
1.0
  6
ByLayer
 10
-8.0763108123850813
 20
71.731820561168206
 30
0.0
 11
-7.9816370258845453
 21
70.3293693012612664
 31
0.0
  0
LINE
  5
23D
100
AcDbEntity
100
AcDbLine
  8
0
 62
256
370
-1
 48
1.0
  6
ByLayer
 10
-0.0190804169337397
 20
71.2975819086380369
 30
0.0
 11
-0.0790216305466558
 21
70.4143920682717095
 31
0.0
  0
LINE
  5
23E
100
AcDbEntity
100
AcDbLine
  8
0
 62
256
370
-1
 48
1.0
  6
ByLayer
 10
-7.1637486699578048
 20
71.3822163781411234
 30
0.0
 11
-7.0151167750152084
 21
70.8003767716991774
 31
0.0
  0
LINE
  5
23F
100
AcDbEntity
100
AcDbLine
  8
0
 62
256
370
-1
 48
1.0
  6
ByLayer
 10
-5.952851026702227
 20
70.7463632590730924
 30
0.0
 11
-5.6467744551544214
 21
71.340511897959999
 31
0.0
  0
LINE
  5
240
100
AcDbEntity
100
AcDbLine
  8
0
 62
256
370
-1
 48
1.0
  6
ByLayer
 10
-5.6467744551544214
 20
71.340511897959999
 30
0.0
 11
-5.5747564383196462
 21
71.7546154947599746
 31
0.0
  0
LINE
  5
241
100
AcDbEntity
100
AcDbLine
  8
0
 62
256
370
-1
 48
1.0
  6
ByLayer
 10
-5.5747564383196462
 20
71.7546154947599746
 30
0.0
 11
-6.6730311950500081
 21
71.7726199989686791
 31
0.0
  0
LINE
  5
242
100
AcDbEntity
100
AcDbLine
  8
0
 62
256
370
-1
 48
1.0
  6
ByLayer
 10
-6.6730311950500081
 20
71.7726199989686791
 30
0.0
 11
-7.1637486699578048
 21
71.3822163781411234
 31
0.0
  0
LINE
  5
243
100
AcDbEntity
100
AcDbLine
  8
0
 62
256
370
-1
 48
1.0
  6
ByLayer
 10
-4.5124906900066648
 20
72.4027776462729804
 30
0.0
 11
-4.7217930514327477
 21
70.9564991623606716
 31
0.0
  0
LINE
  5
244
100
AcDbEntity
100
AcDbLine
  8
0
 62
256
370
-1
 48
1.0
  6
ByLayer
 10
-4.5124906900066648
 20
72.4027776462729804
 30
0.0
 11
-4.0549595622218462
 21
72.4568745130852108
 31
0.0
  0
LINE
  5
245
100
AcDbEntity
100
AcDbLine
  8
0
 62
256
370
-1
 48
1.0
  6
ByLayer
 10
-4.0549595622218462
 20
72.4568745130852108
 30
0.0
 11
-3.6694464512717886
 21
72.2276505011689665
 31
0.0
  0
LINE
  5
246
100
AcDbEntity
100
AcDbLine
  8
0
 62
256
370
-1
 48
1.0
  6
ByLayer
 10
-3.6694464512717886
 20
72.2276505011689665
 30
0.0
 11
-3.0234515085987184
 21
71.7900410238743092
 31
0.0
  0
LINE
  5
247
100
AcDbEntity
100
AcDbLine
  8
0
 62
256
370
-1
 48
1.0
  6
ByLayer
 10
-3.0234515085987184
 20
71.7900410238743092
 30
0.0
 11
-2.1690711005472494
 21
71.7796217506053864
 31
0.0
  0
LINE
  5
248
100
AcDbEntity
100
AcDbLine
  8
0
 62
256
370
-1
 48
1.0
  6
ByLayer
 10
-2.1690711005472494
 20
71.7796217506053864
 30
0.0
 11
-1.8148158094039459
 21
71.9254915763702769
 31
0.0
  0
LINE
  5
249
100
AcDbEntity
100
AcDbLine
  8
0
 62
256
370
-1
 48
1.0
  6
ByLayer
 10
-1.8148158094039459
 20
71.9254915763702769
 30
0.0
 11
-1.3563677855714573
 21
72.446455239816288
 31
0.0
  0
LINE
  5
24A
100
AcDbEntity
100
AcDbLine
  8
0
 62
256
370
-1
 48
1.0
  6
ByLayer
 10
-1.3563677855714573
 20
72.446455239816288
 30
0.0
 11
-1.1063052271173675
 21
72.7069370715393006
 31
0.0
  0
LINE
  5
24B
100
AcDbEntity
100
AcDbLine
  8
0
 62
256
370
-1
 48
1.0
  6
ByLayer
 10
-1.1063052271173675
 20
72.7069370715393006
 30
0.0
 11
-0.6686957498227102
 21
72.6756792517325465
 31
0.0
  0
LINE
  5
24C
100
AcDbEntity
100
AcDbLine
  8
0
 62
256
370
-1
 48
1.0
  6
ByLayer
 10
-0.6686957498227102
 20
72.6756792517325465
 30
0.0
 11
-0.3665368250240064
 21
72.3110046873203345
 31
0.0
  0
LINE
  5
24D
100
AcDbEntity
100
AcDbLine
  8
0
 62
256
370
-1
 48
1.0
  6
ByLayer
 10
-7.0151167750152084
 20
70.8003767716991774
 30
0.0
 11
-7.1742371784417216
 21
70.0516777721504837
 31
0.0
  0
LINE
  5
24E
100
AcDbEntity
100
AcDbLine
  8
0
 62
256
370
-1
 48
1.0
  6
ByLayer
 10
-5.9643344956174573
 20
69.7275966963939879
 30
0.0
 11
-5.952851026702227
 21
70.7463632590730924
 31
0.0
  0
LINE
  5
24F
100
AcDbEntity
100
AcDbLine
  8
0
 62
256
370
-1
 48
1.0
  6
ByLayer
 10
-4.7217930514327477
 20
70.9564991623606716
 30
0.0
 11
-4.6896155976418825
 21
69.5763588610409442
 31
0.0
  0
LINE
  5
250
100
AcDbEntity
100
AcDbLine
  8
0
 62
256
370
-1
 48
1.0
  6
ByLayer
 10
-0.3665368250240064
 20
72.3110046873203345
 30
0.0
 11
-0.4207613376628458
 21
70.2096922620751087
 31
0.0
  0
LINE
  5
251
100
AcDbEntity
100
AcDbLine
  8
0
 62
256
370
-1
 48
1.0
  6
ByLayer
 10
-4.6896155976418825
 20
69.5763588610409442
 30
0.0
 11
-4.6314011333942657
 21
69.2637893739201331
 31
0.0
  0
LINE
  5
252
100
AcDbEntity
100
AcDbLine
  8
0
 62
256
370
-1
 48
1.0
  6
ByLayer
 10
-5.9643344956174573
 20
69.7275966963939879
 30
0.0
 11
-5.9495026679670158
 21
69.4769871344329033
 31
0.0
  0
LINE
  5
253
100
AcDbEntity
100
AcDbLine
  8
0
 62
256
370
-1
 48
1.0
  6
ByLayer
 10
-7.1742371784417216
 20
70.0516777721504837
 30
0.0
 11
-7.1508113486029181
 21
69.8945777531923085
 31
0.0
  0
LINE
  5
254
100
AcDbEntity
100
AcDbLine
  8
0
 62
256
370
-1
 48
1.0
  6
ByLayer
 10
-11.5404553557347924
 20
75.8630428552741023
 30
0.0
 11
-11.5566086073085454
 21
76.0135791063441104
 31
0.0
  0
ENDSEC
  0
SECTION
  2
OBJECTS
  0
DICTIONARY
  5
C
100
AcDbDictionary
280
0
281
1
  3
ACAD_GROUP
350
D
  3
ACAD_LAYOUT
350
1A
  3
ACAD_MLINESTYLE
350
17
  3
ACAD_PLOTSETTINGS
350
19
  3
ACAD_PLOTSTYLENAME
350
E
  3
AcDbVariableDictionary
350
255
  3
QCAD_OBJECTS
350
256
  0
DICTIONARY
  5
D
100
AcDbDictionary
280
0
281
1
  0
ACDBDICTIONARYWDFLT
  5
E
100
AcDbDictionary
281
1
  3
Normal
350
F
100
AcDbDictionaryWithDefault
340
F
  0
ACDBPLACEHOLDER
  5
F
  0
DICTIONARY
  5
17
100
AcDbDictionary
280
0
281
1
  3
Standard
350
18
  0
MLINESTYLE
  5
18
100
AcDbMlineStyle
  2
STANDARD
 70
0
  3

 62
256
 51
90.0
 52
90.0
 71
2
 49
0.5
 62
256
  6
BYLAYER
 49
-0.5
 62
256
  6
BYLAYER
  0
DICTIONARY
  5
19
100
AcDbDictionary
280
0
281
1
  0
DICTIONARY
  5
1A
100
AcDbDictionary
281
1
  3
Layout1
350
1E
  3
Layout2
350
26
  3
Model
350
22
  0
LAYOUT
  5
1E
100
AcDbPlotSettings
  1

  2
none_device
  4

  6

 40
0.0
 41
0.0
 42
0.0
 43
0.0
 44
0.0
 45
0.0
 46
0.0
 47
0.0
 48
0.0
 49
0.0
140
0.0
141
0.0
142
1.0
143
1.0
 70
688
 72
0
 73
0
 74
5
  7

 75
16
147
1.0
148
0.0
149
0.0
100
AcDbLayout
  1
Layout1
 70
1
 71
1
 10
0.0
 20
0.0
 11
420.0
 21
297.0
 12
0.0
 22
0.0
 32
0.0
 14
100000000000000000000.0
 24
100000000000000000000.0
 34
100000000000000000000.0
 15
-100000000000000000000.0
 25
-100000000000000000000.0
 35
-100000000000000000000.0
146
0.0
 13
0.0
 23
0.0
 33
0.0
 16
1.0
 26
0.0
 36
0.0
 17
0.0
 27
1.0
 37
0.0
 76
0
330
1B
  0
LAYOUT
  5
22
100
AcDbPlotSettings
  1

  2
none_device
  4

  6

 40
0.0
 41
0.0
 42
0.0
 43
0.0
 44
0.0
 45
0.0
 46
0.0
 47
0.0
 48
0.0
 49
0.0
140
0.0
141
0.0
142
1.0
143
1.0
 70
1712
 72
0
 73
0
 74
0
  7

 75
0
147
1.0
148
0.0
149
0.0
100
AcDbLayout
  1
Model
 70
1
 71
0
 10
0.0
 20
0.0
 11
12.0
 21
9.0
 12
0.0
 22
0.0
 32
0.0
 14
0.0
 24
0.0
 34
0.0
 15
0.0
 25
0.0
 35
0.0
146
0.0
 13
0.0
 23
0.0
 33
0.0
 16
1.0
 26
0.0
 36
0.0
 17
0.0
 27
1.0
 37
0.0
 76
0
330
1F
  0
LAYOUT
  5
26
100
AcDbPlotSettings
  1

  2
none_device
  4

  6

 40
0.0
 41
0.0
 42
0.0
 43
0.0
 44
0.0
 45
0.0
 46
0.0
 47
0.0
 48
0.0
 49
0.0
140
0.0
141
0.0
142
1.0
143
1.0
 70
688
 72
0
 73
0
 74
5
  7

 75
16
147
1.0
148
0.0
149
0.0
100
AcDbLayout
  1
Layout2
 70
1
 71
2
 10
0.0
 20
0.0
 11
12.0
 21
9.0
 12
0.0
 22
0.0
 32
0.0
 14
0.0
 24
0.0
 34
0.0
 15
0.0
 25
0.0
 35
0.0
146
0.0
 13
0.0
 23
0.0
 33
0.0
 16
1.0
 26
0.0
 36
0.0
 17
0.0
 27
1.0
 37
0.0
 76
0
330
23
  0
DICTIONARY
  5
255
100
AcDbDictionary
281
1
  3
DIMASSOC
350
258
  3
HIDETEXT
350
257
  0
DICTIONARYVAR
  5
257
100
DictionaryVariables
280
0
  1
2
  0
DICTIONARYVAR
  5
258
100
DictionaryVariables
280
0
  1
1
  0
DICTIONARY
  5
256
100
AcDbDictionary
281
1
  3
ColorSettings/BackgroundColor
350
259
  3
ColorSettings/ColorMode
350
25A
  3
Grid/DisplayGrid00
350
25B
  3
Grid/DisplayGrid01
350
25C
  3
Grid/DisplayGrid02
350
25D
  3
Grid/DisplayGrid03
350
25E
  3
Grid/GridSpacingX00
350
25F
  3
Grid/GridSpacingX01
350
260
  3
Grid/GridSpacingX02
350
261
  3
Grid/GridSpacingX03
350
262
  3
Grid/GridSpacingY00
350
263
  3
Grid/GridSpacingY01
350
264
  3
Grid/GridSpacingY02
350
265
  3
Grid/GridSpacingY03
350
266
  3
Grid/IsometricGrid00
350
267
  3
Grid/IsometricGrid01
350
268
  3
Grid/IsometricGrid02
350
269
  3
Grid/IsometricGrid03
350
26A
  3
Grid/IsometricProjection00
350
26B
  3
Grid/IsometricProjection01
350
26C
  3
Grid/IsometricProjection02
350
26D
  3
Grid/IsometricProjection03
350
26E
  3
Grid/MetaGridSpacingX00
350
26F
  3
Grid/MetaGridSpacingX01
350
270
  3
Grid/MetaGridSpacingX02
350
271
  3
Grid/MetaGridSpacingX03
350
272
  3
Grid/MetaGridSpacingY00
350
273
  3
Grid/MetaGridSpacingY01
350
274
  3
Grid/MetaGridSpacingY02
350
275
  3
Grid/MetaGridSpacingY03
350
276
  3
MultiPageSettings/Columns
350
277
  3
MultiPageSettings/GlueMarginsBottom
350
278
  3
MultiPageSettings/GlueMarginsLeft
350
279
  3
MultiPageSettings/GlueMarginsRight
350
27A
  3
MultiPageSettings/GlueMarginsTop
350
27B
  3
MultiPageSettings/PrintCropMarks
350
27C
  3
MultiPageSettings/Rows
350
27D
  3
PageSettings/OffsetX
350
27E
  3
PageSettings/OffsetY
350
27F
  3
PageSettings/PageOrientation
350
280
  3
PageSettings/PaperHeight
350
281
  3
PageSettings/PaperWidth
350
282
  3
PageSettings/Scale
350
283
  3
PageSettings/ShowPaperBorders
350
284
  3
QCADVersion
350
285
  3
UnitSettings/PaperUnit
350
286
  0
XRECORD
  5
259
330
256
100
AcDbXrecord
280
1
1000
White
  0
XRECORD
  5
25A
330
256
100
AcDbXrecord
280
1
1000
FullColor
  0
XRECORD
  5
25B
330
256
100
AcDbXrecord
280
1
290
1
  0
XRECORD
  5
25C
330
256
100
AcDbXrecord
280
1
290
1
  0
XRECORD
  5
25D
330
256
100
AcDbXrecord
280
1
290
1
  0
XRECORD
  5
25E
330
256
100
AcDbXrecord
280
1
290
1
  0
XRECORD
  5
25F
330
256
100
AcDbXrecord
280
1
1000
auto
  0
XRECORD
  5
260
330
256
100
AcDbXrecord
280
1
1000
auto
  0
XRECORD
  5
261
330
256
100
AcDbXrecord
280
1
1000
auto
  0
XRECORD
  5
262
330
256
100
AcDbXrecord
280
1
1000
auto
  0
XRECORD
  5
263
330
256
100
AcDbXrecord
280
1
1000
auto
  0
XRECORD
  5
264
330
256
100
AcDbXrecord
280
1
1000
auto
  0
XRECORD
  5
265
330
256
100
AcDbXrecord
280
1
1000
auto
  0
XRECORD
  5
266
330
256
100
AcDbXrecord
280
1
1000
auto
  0
XRECORD
  5
267
330
256
100
AcDbXrecord
280
1
290
0
  0
XRECORD
  5
268
330
256
100
AcDbXrecord
280
1
290
0
  0
XRECORD
  5
269
330
256
100
AcDbXrecord
280
1
290
0
  0
XRECORD
  5
26A
330
256
100
AcDbXrecord
280
1
290
0
  0
XRECORD
  5
26B
330
256
100
AcDbXrecord
280
1
 90
0
  0
XRECORD
  5
26C
330
256
100
AcDbXrecord
280
1
 90
0
  0
XRECORD
  5
26D
330
256
100
AcDbXrecord
280
1
 90
0
  0
XRECORD
  5
26E
330
256
100
AcDbXrecord
280
1
 90
0
  0
XRECORD
  5
26F
330
256
100
AcDbXrecord
280
1
1000
auto
  0
XRECORD
  5
270
330
256
100
AcDbXrecord
280
1
1000
auto
  0
XRECORD
  5
271
330
256
100
AcDbXrecord
280
1
1000
auto
  0
XRECORD
  5
272
330
256
100
AcDbXrecord
280
1
1000
auto
  0
XRECORD
  5
273
330
256
100
AcDbXrecord
280
1
1000
auto
  0
XRECORD
  5
274
330
256
100
AcDbXrecord
280
1
1000
auto
  0
XRECORD
  5
275
330
256
100
AcDbXrecord
280
1
1000
auto
  0
XRECORD
  5
276
330
256
100
AcDbXrecord
280
1
1000
auto
  0
XRECORD
  5
277
330
256
100
AcDbXrecord
280
1
 90
1
  0
XRECORD
  5
278
330
256
100
AcDbXrecord
280
1
 40
10.0
  0
XRECORD
  5
279
330
256
100
AcDbXrecord
280
1
 40
10.0
  0
XRECORD
  5
27A
330
256
100
AcDbXrecord
280
1
 40
10.0
  0
XRECORD
  5
27B
330
256
100
AcDbXrecord
280
1
 40
10.0
  0
XRECORD
  5
27C
330
256
100
AcDbXrecord
280
1
290
0
  0
XRECORD
  5
27D
330
256
100
AcDbXrecord
280
1
 90
1
  0
XRECORD
  5
27E
330
256
100
AcDbXrecord
280
1
 40
0.0
  0
XRECORD
  5
27F
330
256
100
AcDbXrecord
280
1
 40
0.0
  0
XRECORD
  5
280
330
256
100
AcDbXrecord
280
1
1000
Portrait
  0
XRECORD
  5
281
330
256
100
AcDbXrecord
280
1
 40
297.0
  0
XRECORD
  5
282
330
256
100
AcDbXrecord
280
1
 40
210.0
  0
XRECORD
  5
283
330
256
100
AcDbXrecord
280
1
1000
1:1
  0
XRECORD
  5
284
330
256
100
AcDbXrecord
280
1
290
1
  0
XRECORD
  5
285
330
256
100
AcDbXrecord
280
1
1000
3.11.3
  0
XRECORD
  5
286
330
256
100
AcDbXrecord
280
1
 90
4
  0
IMAGEDEF
  5
1D4
100
AcDbRasterImageDef
 90
0
  1
/home/ben/Desktop/picture14252643624297.png
 10
80.0
 20
64.0
 11
1.0
 21
1.0
280
1
281
0
  0
ENDSEC
  0
EOF
